<svg width="65" height="65" viewBox="0 0 65 65" fill="none" xmlns="http://www.w3.org/2000/svg">
    <circle cx="32.7832" cy="32.8818" r="32" fill="#E2FBEF"/>
    <g clip-path="url(#clip0)">
        <path d="M58.4617 39.7087V39.8712C57.1615 44.747 52.2858 47.5099 47.41 46.2098L45.6222 45.7222L46.1099 47.5099C47.4101 52.3857 44.4846 57.2614 39.7713 58.5616H39.6088C34.733 59.8619 29.8573 56.9364 28.5571 52.2231L28.0695 50.4353L26.7692 51.7356C23.1936 55.3112 17.5052 55.3112 14.0923 51.7356L13.9298 51.5731C10.3542 47.9975 10.3542 42.3091 13.9298 38.7335L15.23 37.4333L13.4423 36.9457C8.56644 35.6454 5.80359 30.7697 7.10371 25.8939V25.7314C8.40394 21.0182 13.2796 18.2553 18.1554 19.5555L19.7807 20.0431L19.4557 18.2554C18.1554 13.3796 21.0809 8.50386 25.7942 7.20363H25.9567C30.8325 5.9034 35.7082 8.82886 37.0085 13.5422L37.4961 15.3299L38.7963 14.0297C42.3719 10.4541 48.0603 10.4541 51.6359 14.0297L51.7984 14.1922C55.374 17.7678 55.374 23.4562 51.7984 26.8691L50.4982 28.1694L52.2859 28.657C56.999 29.9571 59.7619 34.8329 58.4617 39.7087Z" fill="#8BE5B8"/>
        <path d="M32.7828 42.6334C38.1684 42.6334 42.5343 38.2675 42.5343 32.8819C42.5343 27.4963 38.1684 23.1304 32.7828 23.1304C27.3971 23.1304 23.0312 27.4963 23.0312 32.8819C23.0312 38.2675 27.3971 42.6334 32.7828 42.6334Z" fill="#4C241D"/>
        <path d="M32.7827 39.5453C36.4629 39.5453 39.4462 36.562 39.4462 32.8818C39.4462 29.2016 36.4629 26.2183 32.7827 26.2183C29.1025 26.2183 26.1191 29.2016 26.1191 32.8818C26.1191 36.562 29.1025 39.5453 32.7827 39.5453Z" fill="#FFDF74"/>
    </g>
    <defs>
        <clipPath id="clip0">
            <rect width="52" height="52" fill="white" transform="translate(6.7832 6.88184)"/>
        </clipPath>
    </defs>
</svg>
