<svg width="49" height="49" viewBox="0 0 49 49" fill="none" xmlns="http://www.w3.org/2000/svg">
    <g clip-path="url(#clip0)">
        <path d="M48.9607 24.853C48.9623 32.9475 44.8827 40.4973 38.1109 44.9318C31.3391 49.3662 22.7879 50.0876 15.3689 46.8502H15.3607C10.4696 48.4226 3.9648 48.7619 1.38273 48.8364C1.21201 48.8409 1.05606 48.7401 0.990115 48.5826C0.92417 48.425 0.961781 48.2432 1.0848 48.1247C3.48707 45.6506 5.08029 42.5046 5.65308 39.104C-0.536506 30.7208 -0.609182 19.3014 5.4732 10.8401C11.5556 2.37878 22.4031 -1.19075 32.3214 2.00524C42.2398 5.20123 48.9626 14.4324 48.9607 24.853Z" fill="#FFDC64"/>
        <path d="M26.626 20.2209V29.4854C29.1844 29.4854 31.258 27.4114 31.258 24.8534C31.258 22.295 29.1839 20.2209 26.626 20.2209Z" fill="#58595B"/>
        <path d="M29.1796 20.9902C29.6648 21.7225 29.9489 22.5995 29.9489 23.5438C29.9489 25.6471 28.546 27.42 26.626 27.9851V29.4854C29.1844 29.4854 31.258 27.4113 31.258 24.8534C31.258 23.2393 30.4315 21.8193 29.1796 20.9902Z" fill="#414042"/>
        <path d="M14.8459 32.2514H10.7484C8.33837 32.2514 6.38477 30.2978 6.38477 27.8878V21.818C6.38477 19.4079 8.33837 17.4543 10.7484 17.4543H14.8459V32.2514Z" fill="#3A70DD"/>
        <path d="M12.6643 17.4543V29.1969C12.6643 29.6791 12.2738 30.0696 11.7916 30.0696H8.56689C7.92718 30.0696 7.32107 29.9287 6.77344 29.6813C7.45809 31.1959 8.97838 32.2514 10.7487 32.2514H14.8462V17.4543H12.6643Z" fill="#2B5EC1"/>
        <path d="M14.8457 32.2516L23.6991 38.1189C24.9523 38.9493 26.6253 38.0509 26.6253 36.5476V13.1585C26.6253 11.6552 24.9519 10.7567 23.6991 11.5871L14.8457 17.4549V32.2516Z" fill="#719DF4"/>
        <path d="M25.0112 11.2944C25.0234 11.3817 25.03 11.4712 25.03 11.5632V34.9528C25.03 36.456 23.3565 37.3545 22.1037 36.5241L14.8457 31.7136V32.2517L23.6991 38.119C24.9523 38.9494 26.6253 38.0509 26.6253 36.5477V13.1586C26.6253 12.1554 25.8792 11.4249 25.0112 11.2944Z" fill="#4A83F4"/>
        <path d="M32.624 27.438C32.624 27.1548 32.7349 26.872 32.9557 26.6604C33.3968 26.2375 33.6604 25.5616 33.6604 24.853C33.6604 24.1443 33.3968 23.4684 32.9557 23.0455C32.5263 22.634 32.5119 21.9524 32.9238 21.5231C33.3353 21.0937 34.0169 21.0793 34.4463 21.4912C35.3155 22.3247 35.8143 23.55 35.8143 24.8534C35.8143 26.1568 35.3155 27.3821 34.4463 28.2156C34.0169 28.6271 33.3353 28.6127 32.9238 28.1837C32.7235 27.9743 32.624 27.7059 32.624 27.438Z" fill="white"/>
        <path d="M35.59 29.8816C35.59 29.6106 35.6917 29.3396 35.8954 29.1302C36.9279 28.0707 37.52 26.5115 37.52 24.8534C37.52 23.1947 36.9279 21.636 35.8954 20.5766C35.4805 20.1507 35.4892 19.4686 35.9151 19.0536C36.341 18.6387 37.023 18.6474 37.438 19.0733C38.8588 20.5316 39.6735 22.6384 39.6735 24.8534C39.6735 27.0683 38.8588 29.1751 37.438 30.6334C37.023 31.0593 36.341 31.0685 35.9151 30.6531C35.6991 30.4419 35.59 30.1617 35.59 29.8816Z" fill="white"/>
        <path d="M38.5537 32.323C38.5537 32.056 38.6523 31.7889 38.8509 31.5803C40.4576 29.8938 41.3792 27.4414 41.3792 24.8529C41.3792 22.2644 40.4576 19.812 38.8509 18.1255C38.4407 17.6948 38.4573 17.0132 38.888 16.603C39.3187 16.1928 40.0003 16.2094 40.4104 16.6401C42.395 18.7233 43.5331 21.7168 43.5331 24.8529C43.5331 27.989 42.395 30.9825 40.4104 33.0657C40.0003 33.4964 39.3187 33.513 38.888 33.1028C38.6659 32.8912 38.5537 32.6075 38.5537 32.323Z" fill="white"/>
    </g>
    <defs>
        <clipPath id="clip0">
            <rect width="48" height="48" fill="white" transform="translate(0.959961 0.853027)"/>
        </clipPath>
    </defs>
</svg>
