<svg width="25" height="25" viewBox="0 0 25 25" fill="none" xmlns="http://www.w3.org/2000/svg">
    <g clip-path="url(#clip0)">
        <path d="M24.8089 12.6349C24.8098 16.6821 22.77 20.457 19.3841 22.6743C15.9981 24.8915 11.7226 25.2522 8.01308 23.6335H8.00894C5.56343 24.4197 2.31101 24.5893 1.01998 24.6266C0.934619 24.6288 0.856643 24.5784 0.823671 24.4997C0.790698 24.4209 0.809504 24.33 0.871015 24.2707C2.07215 23.0337 2.86876 21.4607 3.15515 19.7604C0.0603604 15.5688 0.0240221 9.85906 3.06521 5.62841C6.1064 1.39776 11.5301 -0.387003 16.4893 1.21099C21.4485 2.80899 24.8099 7.42457 24.8089 12.6349Z" fill="#FFDC64"/>
        <path d="M13.6426 10.3188V14.9511C14.9218 14.9511 15.9586 13.914 15.9586 12.6351C15.9586 11.3559 14.9216 10.3188 13.6426 10.3188Z" fill="#58595B"/>
        <path d="M14.9194 10.7036C15.162 11.0697 15.304 11.5083 15.304 11.9804C15.304 13.0321 14.6026 13.9185 13.6426 14.2011V14.9512C14.9218 14.9512 15.9586 13.9142 15.9586 12.6352C15.9586 11.8281 15.5453 11.1182 14.9194 10.7036Z" fill="#414042"/>
        <path d="M7.75203 16.3341H5.7033C4.49828 16.3341 3.52148 15.3573 3.52148 14.1523V11.1174C3.52148 9.91235 4.49828 8.93555 5.7033 8.93555H7.75203V16.3341Z" fill="#3A70DD"/>
        <path d="M6.66225 8.93555V14.8068C6.66225 15.0479 6.46698 15.2432 6.22589 15.2432H4.61352C4.29367 15.2432 3.99062 15.1727 3.7168 15.049C4.05912 15.8063 4.81927 16.3341 5.70443 16.3341H7.75316V8.93555H6.66225Z" fill="#2B5EC1"/>
        <path d="M7.75293 16.3342L12.1796 19.2678C12.8062 19.683 13.6427 19.2338 13.6427 18.4822V6.78762C13.6427 6.03598 12.806 5.58675 12.1796 6.00195L7.75293 8.93584V16.3342Z" fill="#719DF4"/>
        <path d="M12.8357 5.85547C12.8418 5.89911 12.8451 5.94383 12.8451 5.98987V17.6846C12.8451 18.4363 12.0083 18.8855 11.3819 18.4703L7.75293 16.0651V16.3341L12.1796 19.2678C12.8062 19.683 13.6427 19.2337 13.6427 18.4821V6.78754C13.6427 6.28594 13.2697 5.92071 12.8357 5.85547Z" fill="#4A83F4"/>
        <path d="M16.6416 13.9272C16.6416 13.7856 16.697 13.6443 16.8074 13.5384C17.028 13.327 17.1598 12.9891 17.1598 12.6347C17.1598 12.2804 17.028 11.9424 16.8074 11.731C16.5927 11.5253 16.5855 11.1845 16.7915 10.9698C16.9972 10.7551 17.338 10.7479 17.5527 10.9539C17.9874 11.3706 18.2367 11.9832 18.2367 12.6349C18.2367 13.2867 17.9874 13.8993 17.5527 14.316C17.338 14.5218 16.9972 14.5146 16.7915 14.3001C16.6914 14.1954 16.6416 14.0612 16.6416 13.9272Z" fill="white"/>
        <path d="M18.1251 15.149C18.1251 15.0135 18.1759 14.8781 18.2778 14.7733C18.794 14.2436 19.0901 13.464 19.0901 12.6349C19.0901 11.8056 18.794 11.0263 18.2778 10.4965C18.0703 10.2836 18.0747 9.94257 18.2876 9.73507C18.5006 9.52758 18.8416 9.53195 19.0491 9.74489C19.7595 10.4741 20.1668 11.5274 20.1668 12.6349C20.1668 13.7424 19.7595 14.7958 19.0491 15.525C18.8416 15.7379 18.5006 15.7425 18.2876 15.5348C18.1796 15.4292 18.1251 15.2891 18.1251 15.149Z" fill="white"/>
        <path d="M19.6064 16.3699C19.6064 16.2363 19.6558 16.1028 19.755 15.9985C20.5584 15.1553 21.0192 13.9291 21.0192 12.6348C21.0192 11.3406 20.5584 10.1144 19.755 9.27112C19.5499 9.05577 19.5582 8.71497 19.7736 8.50988C19.9889 8.30479 20.3297 8.31308 20.5348 8.52843C21.5271 9.57002 22.0961 11.0668 22.0961 12.6348C22.0961 14.2029 21.5271 15.6996 20.5348 16.7412C20.3297 16.9566 19.9889 16.9649 19.7736 16.7598C19.6625 16.6539 19.6064 16.5121 19.6064 16.3699Z" fill="white"/>
    </g>
    <defs>
        <clipPath id="clip0">
            <rect width="24" height="24" fill="white" transform="translate(0.80957 0.634766)"/>
        </clipPath>
    </defs>
</svg>
