<svg width="180" height="191" viewBox="0 0 180 191" fill="none" xmlns="http://www.w3.org/2000/svg">
<ellipse cx="81.5" cy="185.5" rx="54.5" ry="5.5" fill="#ABE783"/>
<path d="M130.324 97.3312C138.347 86.3177 138.726 72.9283 131.172 67.4252C123.617 61.922 110.989 66.389 102.966 77.4025C94.9436 88.416 94.5642 101.805 102.119 107.309C109.674 112.812 122.302 108.345 130.324 97.3312Z" fill="#9CD5FA"/>
<path d="M50.8186 112.102C59.4143 112.102 66.3825 100.174 66.3825 85.4602C66.3825 70.7461 59.4143 58.8181 50.8186 58.8181C42.2229 58.8181 35.2547 70.7461 35.2547 85.4602C35.2547 100.174 42.2229 112.102 50.8186 112.102Z" fill="#CCDAFC"/>
<path d="M111.579 115.704C111.579 93.2761 96.9662 75.0616 78.8876 75.0616C60.809 75.0616 46.1966 93.2082 46.1966 115.704C46.1966 135.006 57.003 151.114 71.5474 155.26C73.2465 160.561 76.5088 168.105 81.8101 170.416C82.6257 170.688 83.3053 170.552 83.1014 169.396C82.014 162.532 84.6646 157.707 88.6745 154.444C101.996 149.211 111.579 133.851 111.579 115.704Z" fill="#FCD133"/>
<path d="M104.578 90.5576C102.743 87.6351 100.5 84.9845 98.1217 82.8096C93.636 85.6641 87.6551 87.3632 81.1305 87.3632C73.3826 87.3632 66.4502 84.9165 61.7606 81.0425C59.178 83.0135 56.7992 85.4602 54.7603 88.2468C61.2849 93.9558 70.664 97.49 81.1305 97.49C90.1018 97.5579 98.3256 94.9073 104.578 90.5576Z" fill="#47261F"/>
<path d="M100.908 145.745C105.054 141.055 108.18 135.142 109.948 128.414C104.035 133.307 92.9564 137.113 79.1596 137.113C64.7511 137.113 53.333 132.9 47.624 127.734C49.3231 134.599 52.5174 140.715 56.6633 145.541C63.3238 147.648 71.0038 148.871 79.1596 148.871C87.0434 148.803 94.3836 147.716 100.908 145.745Z" fill="#47261F"/>
<path d="M81.1306 123.792C92.4807 123.792 103.219 120.87 111.579 115.501C111.579 110.403 110.763 105.578 109.404 101.092C103.423 107.073 92.8885 111.151 81.1306 111.151C66.994 111.151 54.5564 105.238 49.731 97.2181C47.8279 101.84 46.6046 106.937 46.2648 112.306C47.2163 113.122 48.2357 113.937 49.3911 114.685C57.9547 120.598 69.2368 123.792 81.1306 123.792Z" fill="#47261F"/>
<path d="M81.5382 90.9653C100.944 90.9653 116.676 75.2336 116.676 55.8276C116.676 36.4216 100.944 20.6899 81.5382 20.6899C62.1322 20.6899 46.4005 36.4216 46.4005 55.8276C46.4005 75.2336 62.1322 90.9653 81.5382 90.9653Z" fill="#FCD133"/>
<path d="M102.675 70.8478C91.4608 84.5767 73.1784 84.5767 61.9642 70.8478H102.675Z" fill="white"/>
<path d="M59.1102 63.9154C55.1003 59.9055 55.1003 53.4489 59.1102 49.439C63.1201 45.429 69.5768 45.429 73.5867 49.439C77.5966 53.4489 77.5966 59.9055 73.5867 63.9154" fill="white"/>
<path d="M89.7625 63.9154C85.7526 59.9055 85.7526 53.4489 89.7625 49.439C93.7724 45.429 100.229 45.429 104.239 49.439C108.249 53.4489 108.249 59.9055 104.239 63.9154" fill="white"/>
<path d="M66.3826 62.2163C69.3104 62.2163 71.6838 59.8429 71.6838 56.9151C71.6838 53.9873 69.3104 51.6138 66.3826 51.6138C63.4548 51.6138 61.0813 53.9873 61.0813 56.9151C61.0813 59.8429 63.4548 62.2163 66.3826 62.2163Z" fill="#47261F"/>
<path d="M97.306 62.2163C100.234 62.2163 102.607 59.8429 102.607 56.9151C102.607 53.9873 100.234 51.6138 97.306 51.6138C94.3782 51.6138 92.0048 53.9873 92.0048 56.9151C92.0048 59.8429 94.3782 62.2163 97.306 62.2163Z" fill="#47261F"/>
<path d="M102.608 15.2528C98.4618 18.583 94.7237 23.5444 94.7237 30.2729" stroke="#47261F" stroke-width="2.71858" stroke-miterlimit="10" stroke-linecap="round"/>
<path d="M75.4215 13.0779C72.2951 17.0198 69.2367 22.7968 69.2367 30.2729" stroke="#47261F" stroke-width="2.71858" stroke-miterlimit="10" stroke-linecap="round"/>
<path d="M68.3534 55.2159C68.8038 55.2159 69.1689 54.8508 69.1689 54.4004C69.1689 53.9499 68.8038 53.5848 68.3534 53.5848C67.9029 53.5848 67.5378 53.9499 67.5378 54.4004C67.5378 54.8508 67.9029 55.2159 68.3534 55.2159Z" fill="#9CD5FA"/>
<path d="M99.3449 55.2159C99.7954 55.2159 100.161 54.8508 100.161 54.4004C100.161 53.9499 99.7954 53.5848 99.3449 53.5848C98.8945 53.5848 98.5294 53.9499 98.5294 54.4004C98.5294 54.8508 98.8945 55.2159 99.3449 55.2159Z" fill="#9CD5FA"/>
<path d="M101.656 19.8743C103.421 19.8743 104.851 18.4442 104.851 16.68C104.851 14.9158 103.421 13.4857 101.656 13.4857C99.8923 13.4857 98.4621 14.9158 98.4621 16.68C98.4621 18.4442 99.8923 19.8743 101.656 19.8743Z" fill="#47261F"/>
<path d="M76.3048 15.3887C78.069 15.3887 79.4992 13.9585 79.4992 12.1943C79.4992 10.4302 78.069 9 76.3048 9C74.5407 9 73.1105 10.4302 73.1105 12.1943C73.1105 13.9585 74.5407 15.3887 76.3048 15.3887Z" fill="#47261F"/>
<path d="M32.4 128.074C32.4 128.074 36.6138 108.568 51.8379 107.413" stroke="#47261F" stroke-width="2.71858" stroke-miterlimit="10" stroke-linecap="round"/>
<path d="M147.6 101.228C147.6 101.228 123.472 117.472 107.093 105.51" stroke="#47261F" stroke-width="2.71858" stroke-miterlimit="10" stroke-linecap="round"/>
</svg>
