<svg width="180" height="201" viewBox="0 0 180 201" fill="none" xmlns="http://www.w3.org/2000/svg">
<path d="M49.6764 97.3313C41.6537 86.3178 41.2743 72.9284 48.829 67.4252C56.3837 61.9221 69.0117 66.3891 77.0344 77.4025C85.0571 88.416 85.4365 101.805 77.8818 107.309C70.3271 112.812 57.6991 108.345 49.6764 97.3313Z" fill="#9CD5FA"/>
<path d="M129.181 112.103C120.586 112.103 113.617 100.174 113.617 85.4604C113.617 70.7463 120.586 58.8183 129.181 58.8183C137.777 58.8183 144.745 70.7463 144.745 85.4604C144.745 100.174 137.777 112.103 129.181 112.103Z" fill="#CCDAFC"/>
<path d="M68.4225 115.704C68.4225 93.2761 83.0349 75.0616 101.113 75.0616C119.192 75.0616 133.804 93.2082 133.804 115.704C133.804 135.006 122.998 151.114 108.454 155.26C106.755 160.561 103.492 168.105 98.191 170.416C97.3754 170.688 96.6958 170.552 96.8997 169.396C97.9871 162.532 95.3365 157.707 91.3266 154.444C78.0055 149.211 68.4225 133.851 68.4225 115.704Z" fill="#FCD133"/>
<path d="M75.4222 90.5577C77.2572 87.6353 79.5001 84.9846 81.8788 82.8098C86.3645 85.6643 92.3454 87.3634 98.87 87.3634C106.618 87.3634 113.55 84.9167 118.24 81.0427C120.823 83.0137 123.201 85.4604 125.24 88.2469C118.716 93.956 109.337 97.4901 98.87 97.4901C89.8986 97.5581 81.6749 94.9075 75.4222 90.5577Z" fill="#47261F"/>
<path d="M79.0893 145.744C74.9434 141.055 71.8171 135.142 70.05 128.413C75.9629 133.307 87.0411 137.113 100.838 137.113C115.246 137.113 126.665 132.899 132.374 127.734C130.674 134.598 127.48 140.715 123.334 145.54C116.674 147.647 108.994 148.871 100.838 148.871C92.9541 148.803 85.6139 147.715 79.0893 145.744Z" fill="#47261F"/>
<path d="M98.8683 123.792C87.5182 123.792 76.7798 120.869 68.4201 115.5C68.4201 110.403 69.2357 105.577 70.595 101.091C76.5759 107.072 87.1104 111.15 98.8683 111.15C113.005 111.15 125.442 105.237 130.268 97.2175C132.171 101.839 133.394 106.936 133.734 112.306C132.783 113.121 131.763 113.937 130.608 114.684C122.044 120.597 110.762 123.792 98.8683 123.792Z" fill="#47261F"/>
<path d="M147.6 128.074C147.6 128.074 143.386 108.568 128.162 107.413" stroke="#47261F" stroke-width="2.71858" stroke-miterlimit="10" stroke-linecap="round"/>
<path d="M32.4001 101.228C32.4001 101.228 56.5275 117.472 72.907 105.51" stroke="#47261F" stroke-width="2.71858" stroke-miterlimit="10" stroke-linecap="round"/>
<path d="M101.153 86.9997C81.7383 86.9997 65.9999 71.2613 65.9999 51.847C65.9999 32.4326 81.7383 16.6942 101.153 16.6942C120.567 16.6942 136.305 32.4326 136.305 51.847C136.305 71.2613 120.567 86.9997 101.153 86.9997Z" fill="#FCD133"/>
<path d="M80.0717 11.2552C84.2193 14.5869 87.959 19.5505 87.959 26.2818" stroke="#47261F" stroke-width="2.71975" stroke-miterlimit="10" stroke-linecap="round"/>
<path d="M81.0245 15.8792C79.2596 15.8792 77.8288 14.4484 77.8288 12.6835C77.8288 10.9186 79.2596 9.48779 81.0245 9.48779C82.7894 9.48779 84.2202 10.9186 84.2202 12.6835C84.2202 14.4484 82.7894 15.8792 81.0245 15.8792Z" fill="#47261F"/>
<path d="M107.27 9.07968C110.398 13.0233 113.458 18.8028 113.458 26.2821" stroke="#47261F" stroke-width="2.71975" stroke-miterlimit="10" stroke-linecap="round"/>
<path d="M106.386 11.3914C104.621 11.3914 103.191 9.96065 103.191 8.19571C103.191 6.43077 104.621 5 106.386 5C108.151 5 109.582 6.43077 109.582 8.19571C109.582 9.96065 108.151 11.3914 106.386 11.3914Z" fill="#47261F"/>
<path d="M117.602 67.0476C114.132 71.0801 109.045 74.6496 102.317 74.4218" stroke="#47261F" stroke-width="2.71975" stroke-miterlimit="10" stroke-linecap="round"/>
<line x1="70.0356" y1="43.5589" x2="132.486" y2="43.5589" stroke="#1A1919" stroke-width="2.8131"/>
<path d="M99.2919 43.8402C99.2919 45.7612 98.9135 47.6634 98.1784 49.4381C97.4433 51.2129 96.3658 52.8255 95.0074 54.1838C93.6491 55.5422 92.0365 56.6197 90.2617 57.3548C88.4869 58.0899 86.5848 58.4683 84.6638 58.4683C82.7428 58.4683 80.8406 58.0899 79.0658 57.3548C77.2911 56.6197 75.6785 55.5422 74.3201 54.1838C72.9618 52.8255 71.8843 51.2129 71.1491 49.4381C70.414 47.6634 70.0356 45.7612 70.0356 43.8402L84.6638 43.8402H99.2919Z" fill="#1A1919"/>
<path d="M132.487 43.8403C132.487 45.7613 132.109 47.6635 131.373 49.4383C130.638 51.213 129.561 52.8256 128.202 54.184C126.844 55.5423 125.232 56.6198 123.457 57.355C121.682 58.0901 119.78 58.4685 117.859 58.4685C115.938 58.4685 114.036 58.0901 112.261 57.355C110.486 56.6198 108.874 55.5423 107.515 54.184C106.157 52.8256 105.079 51.213 104.344 49.4383C103.609 47.6635 103.231 45.7613 103.231 43.8403L117.859 43.8403H132.487Z" fill="#1A1919"/>
<line x1="80.5602" y1="44.2382" x2="73.2461" y2="51.5522" stroke="white" stroke-width="1.12524"/>
<line x1="83.9364" y1="44.2382" x2="76.6223" y2="51.5522" stroke="white" stroke-width="1.12524"/>
<line x1="114.88" y1="45.3633" x2="107.566" y2="52.6773" stroke="white" stroke-width="1.12524"/>
<line x1="118.257" y1="45.3633" x2="110.943" y2="52.6773" stroke="white" stroke-width="1.12524"/>
<ellipse cx="101.5" cy="195.5" rx="54.5" ry="5.5" fill="#ABE783"/>
</svg>
