<svg width="100" height="100" viewBox="0 0 100 100" fill="none" xmlns="http://www.w3.org/2000/svg">
    <path d="M72.4024 54.0729C76.8595 47.9543 77.0702 40.5157 72.8732 37.4584C68.6761 34.4011 61.6606 36.8828 57.2035 43.0014C52.7465 49.12 52.5357 56.5585 56.7328 59.6158C60.9298 62.6732 67.9454 60.1915 72.4024 54.0729Z" fill="#9CD5FA"/>
    <path d="M28.2325 62.2791C33.0079 62.2791 36.8792 55.6524 36.8792 47.4779C36.8792 39.3035 33.0079 32.6768 28.2325 32.6768C23.4572 32.6768 19.5859 39.3035 19.5859 47.4779C19.5859 55.6524 23.4572 62.2791 28.2325 62.2791Z" fill="#CCDAFC"/>
    <path d="M61.9881 64.28C61.9881 51.8199 53.8701 41.7007 43.8264 41.7007C33.7828 41.7007 25.6648 51.7821 25.6648 64.28C25.6648 75.0033 31.6683 83.952 39.7486 86.2553C40.6925 89.2004 42.5049 93.3915 45.45 94.6753C45.9031 94.8264 46.2807 94.7508 46.1674 94.1089C45.5633 90.2954 47.0359 87.6146 49.2636 85.8022C56.6642 82.8948 61.9881 74.3615 61.9881 64.28Z" fill="#FCD133"/>
    <path d="M58.0991 50.3096C57.0796 48.686 55.8336 47.2134 54.512 46.0051C52.02 47.591 48.6973 48.5349 45.0725 48.5349C40.7681 48.5349 36.9168 47.1756 34.3114 45.0234C32.8766 46.1184 31.5551 47.4777 30.4224 49.0258C34.0471 52.1975 39.2578 54.1609 45.0725 54.1609C50.0566 54.1987 54.6253 52.7261 58.0991 50.3096Z" fill="#47261F"/>
    <path d="M56.0601 80.9693C58.3634 78.364 60.1002 75.079 61.082 71.341C57.797 74.0595 51.6424 76.174 43.9775 76.174C35.9728 76.174 29.6294 73.833 26.4578 70.9634C27.4017 74.7769 29.1763 78.1752 31.4796 80.856C35.1799 82.0265 39.4466 82.7062 43.9775 82.7062C48.3575 82.6684 52.4353 82.0643 56.0601 80.9693Z" fill="#47261F"/>
    <path d="M45.0725 68.7732C51.3782 68.7732 57.3439 67.1496 61.9882 64.1667C61.9882 61.3348 61.5351 58.654 60.7799 56.162C57.4572 59.4847 51.6047 61.7502 45.0725 61.7502C37.2189 61.7502 30.3091 58.4652 27.6283 54.0098C26.5711 56.5773 25.8914 59.4092 25.7026 62.3921C26.2313 62.8452 26.7976 63.2983 27.4395 63.7136C32.197 66.9986 38.4649 68.7732 45.0725 68.7732Z" fill="#47261F"/>
    <path d="M45.299 50.536C56.0801 50.536 64.82 41.7962 64.82 31.0151C64.82 20.234 56.0801 11.4941 45.299 11.4941C34.5179 11.4941 25.7781 20.234 25.7781 31.0151C25.7781 41.7962 34.5179 50.536 45.299 50.536Z" fill="#FCD133"/>
    <path d="M57.0417 39.3599C50.8116 46.987 40.6546 46.987 34.4246 39.3599H57.0417Z" fill="white"/>
    <path d="M32.839 35.5087C30.6113 33.281 30.6113 29.6939 32.839 27.4662C35.0667 25.2385 38.6538 25.2385 40.8815 27.4662C43.1092 29.6939 43.1092 33.281 40.8815 35.5087" fill="white"/>
    <path d="M49.8681 35.5087C47.6403 33.281 47.6403 29.6939 49.8681 27.4662C52.0958 25.2385 55.6828 25.2385 57.9105 27.4662C60.1383 29.6939 60.1383 33.281 57.9105 35.5087" fill="white"/>
    <path d="M36.8792 34.5646C38.5058 34.5646 39.8243 33.246 39.8243 31.6194C39.8243 29.9929 38.5058 28.6743 36.8792 28.6743C35.2527 28.6743 33.9341 29.9929 33.9341 31.6194C33.9341 33.246 35.2527 34.5646 36.8792 34.5646Z" fill="#47261F"/>
    <path d="M54.0589 34.5646C55.6855 34.5646 57.004 33.246 57.004 31.6194C57.004 29.9929 55.6855 28.6743 54.0589 28.6743C52.4324 28.6743 51.1138 29.9929 51.1138 31.6194C51.1138 33.246 52.4324 34.5646 54.0589 34.5646Z" fill="#47261F"/>
    <path d="M57.0042 8.47363C54.701 10.3238 52.6243 13.0801 52.6243 16.8182" stroke="#47261F" stroke-width="1.51032" stroke-miterlimit="10" stroke-linecap="round"/>
    <path d="M41.9008 7.26562C40.164 9.4556 38.4648 12.665 38.4648 16.8184" stroke="#47261F" stroke-width="1.51032" stroke-miterlimit="10" stroke-linecap="round"/>
    <path d="M37.9741 30.6757C38.2243 30.6757 38.4272 30.4729 38.4272 30.2226C38.4272 29.9724 38.2243 29.7695 37.9741 29.7695C37.7239 29.7695 37.521 29.9724 37.521 30.2226C37.521 30.4729 37.7239 30.6757 37.9741 30.6757Z" fill="#9CD5FA"/>
    <path d="M55.1916 30.6757C55.4419 30.6757 55.6447 30.4729 55.6447 30.2226C55.6447 29.9724 55.4419 29.7695 55.1916 29.7695C54.9414 29.7695 54.7385 29.9724 54.7385 30.2226C54.7385 30.4729 54.9414 30.6757 55.1916 30.6757Z" fill="#9CD5FA"/>
    <path d="M56.4758 11.0415C57.4559 11.0415 58.2504 10.2469 58.2504 9.26682C58.2504 8.28672 57.4559 7.49219 56.4758 7.49219C55.4957 7.49219 54.7012 8.28672 54.7012 9.26682C54.7012 10.2469 55.4957 11.0415 56.4758 11.0415Z" fill="#47261F"/>
    <path d="M42.3916 8.54926C43.3717 8.54926 44.1662 7.75473 44.1662 6.77463C44.1662 5.79453 43.3717 5 42.3916 5C41.4115 5 40.6169 5.79453 40.6169 6.77463C40.6169 7.75473 41.4115 8.54926 42.3916 8.54926Z" fill="#47261F"/>
    <path d="M18 71.1523C18 71.1523 20.341 60.3157 28.7988 59.6738" stroke="#47261F" stroke-width="1.51032" stroke-miterlimit="10" stroke-linecap="round"/>
    <path d="M81.9999 56.2378C81.9999 56.2378 68.5958 65.262 59.4961 58.6166" stroke="#47261F" stroke-width="1.51032" stroke-miterlimit="10" stroke-linecap="round"/>
</svg>