<svg id="Layer_1" data-name="Layer 1" xmlns="http://www.w3.org/2000/svg" viewBox="0 0 299 299"><defs><style>.cls-1{fill:#dae9f2;}.cls-2,.cls-6{fill:none;stroke-miterlimit:10;}.cls-2{stroke:#000;stroke-width:2px;}.cls-3{fill:#f2b705;}.cls-4{fill:#591202;}.cls-5{fill:#bfd7e8;}.cls-6{stroke:#bfd7e8;stroke-width:7px;}</style></defs><path class="cls-1" d="M252.87,138.86S259.59,48.19,203.49,68s21.1,81.4,21.1,81.4S248.62,149.68,252.87,138.86Z" transform="translate(-87.5 -24.5)"/><path class="cls-2" d="M156.11,148.82c-9-11.21-21.59-29.93-10.53-43.79a20,20,0,0,1,13.81-7.37c3.34-.27,6.93.4,9.44,2.63a13.09,13.09,0,0,1,3.86,8.23c.74,5.62-1,14.67-8.38,14.15" transform="translate(-87.5 -24.5)"/><path class="cls-3" d="M330,190.5c0,10.46-3.47,20.37-9.69,29.24q-1.33,1.9-2.82,3.73c-7.42,9.11-17.83,17-30.33,22.94-14.66,7-32.19,11.47-51.17,12.4q-3.7.19-7.49.19a148.86,148.86,0,0,1-17.19-1,132.11,132.11,0,0,1-39-10.46C145,235.28,127,214.32,127,190.5c0-24.58,19.18-46.14,48-58.22a134.39,134.39,0,0,1,38.73-9.56c4.82-.47,9.76-.72,14.78-.72,4.84,0,9.61.23,14.27.68a131.33,131.33,0,0,1,45.46,12.44c11.9,5.85,21.83,13.4,29,22.12q1.38,1.68,2.63,3.42h0C326.37,169.68,330,179.81,330,190.5Z" transform="translate(-87.5 -24.5)"/><path class="cls-4" d="M211.31,258a132.11,132.11,0,0,1-39-10.46c21.48-39.24,10.55-89.83,2.66-115.28a134.39,134.39,0,0,1,38.73-9.56C222.93,152.45,234.67,209.12,211.31,258Z" transform="translate(-87.5 -24.5)"/><path class="cls-4" d="M287.16,246.41c-14.66,7-32.19,11.47-51.17,12.4,35.22-45.74,14.5-114.77,6.78-136.13a131.33,131.33,0,0,1,45.46,12.44C295.6,163.74,301.57,206.67,287.16,246.41Z" transform="translate(-87.5 -24.5)"/><path class="cls-4" d="M330,190.5c0,10.46-3.47,20.37-9.69,29.24q-1.33,1.9-2.82,3.73c5.45-22.75,3.54-46.73-.22-66.23q1.38,1.68,2.63,3.42h0C326.37,169.68,330,179.81,330,190.5Z" transform="translate(-87.5 -24.5)"/><polygon class="cls-4" points="238.5 158.59 238.5 175.07 288.1 167.29 238.5 158.59"/><path class="cls-5" d="M236.31,133.86S229.58,43.19,285.68,63s-21.09,81.4-21.09,81.4S240.56,144.68,236.31,133.86Z" transform="translate(-87.5 -24.5)"/><circle cx="69.5" cy="149.5" r="6"/><path class="cls-2" d="M151,154c-13.69-9.15-33.83-25.29-26.5-44.21a22.88,22.88,0,0,1,12.55-12.77c3.56-1.45,7.71-1.94,11.22-.38,3.24,1.45,5.54,4.46,7,7.67,2.74,5.89,3.94,16.37-4.3,18.33" transform="translate(-87.5 -24.5)"/><circle class="cls-6" cx="149.5" cy="149.5" r="146"/></svg>