<svg width="101" height="101" viewBox="0 0 101 101" fill="none" xmlns="http://www.w3.org/2000/svg">
    <g clip-path="url(#clip0)">
        <path d="M37.9214 71.1243C41.4511 78.6936 31.6355 90.7411 21.996 95.2362C14.4267 98.7659 6.00579 95.2222 2.4761 87.6528C-1.05359 80.0835 1.64466 71.3548 9.21399 67.8251C18.8536 63.3301 34.3917 63.5549 37.9214 71.1243Z" fill="#CCEFF7"/>
        <path d="M37.9217 71.1241C36.8315 68.7862 34.5952 67.1499 31.7415 66.136C22.8379 71.4071 16.2631 80.236 14.0219 90.7155C13.604 92.6696 13.6993 94.6555 14.2647 96.5073C16.7919 96.8098 19.4422 96.427 21.9961 95.236C31.6358 90.7409 41.4514 78.6934 37.9217 71.1241Z" fill="#8CD6FE"/>
        <path d="M12.6545 82.1959C12.0873 82.1959 11.5474 81.8645 11.3086 81.3106C10.9882 80.5676 11.3308 79.7057 12.0738 79.3854C17.5496 77.0248 26.5179 75.1758 32.4916 75.1758C33.3005 75.1758 33.9564 75.8316 33.9564 76.6406C33.9564 77.4496 33.3005 78.1055 32.4916 78.1055C26.9509 78.1055 18.3119 79.8865 13.2338 82.0758C13.0447 82.1574 12.848 82.1959 12.6545 82.1959Z" fill="#8CD6FE"/>
        <path d="M63.9646 71.1243C60.4349 78.6936 70.2505 90.7411 79.89 95.2362C87.4593 98.7659 95.8802 95.2222 99.4099 87.6528C102.94 80.0835 100.241 71.3548 92.672 67.8251C83.0325 63.3301 67.4943 63.5549 63.9646 71.1243Z" fill="#CCEFF7"/>
        <path d="M63.9646 71.1241C65.0548 68.7862 67.2911 67.1499 70.1449 66.136C79.0484 71.4071 85.6232 80.236 87.8644 90.7155C88.2824 92.6696 88.187 94.6555 87.6216 96.5073C85.0945 96.8098 82.4441 96.427 79.8902 95.236C70.2505 90.7409 60.4349 78.6934 63.9646 71.1241Z" fill="#8CD6FE"/>
        <path d="M89.2346 82.1959C89.041 82.1959 88.8443 82.1572 88.6553 82.0758C83.5771 79.8867 74.9381 78.1055 69.3975 78.1055C68.5885 78.1055 67.9326 77.4496 67.9326 76.6406C67.9326 75.8316 68.5885 75.1758 69.3975 75.1758C75.3709 75.1758 84.3395 77.0248 89.815 79.3854C90.558 79.7057 90.9006 80.5676 90.5803 81.3106C90.3416 81.8647 89.8018 82.1959 89.2346 82.1959Z" fill="#8CD6FE"/>
        <path d="M79.2596 84.3323C73.3713 81.2131 64.4104 78.6858 50.9434 78.6858C37.4764 78.6858 28.5154 81.2133 22.6272 84.3323C21.4166 86.7227 20.4998 89.287 19.9242 91.9778C19.191 95.4067 21.7903 98.6438 25.2967 98.6438H76.5898C80.0963 98.6438 82.6955 95.4067 81.9623 91.9778C81.3869 89.2868 80.4699 86.7225 79.2596 84.3323Z" fill="#FFDC64"/>
        <path d="M72.9373 75.787L72.9367 75.7877C66.715 75.7877 35.175 75.7866 28.9533 75.7866V75.7864C26.3955 78.2481 24.2486 81.1338 22.6289 84.3323C28.4383 86.8452 37.4781 88.376 50.9451 88.376C64.4121 88.376 73.4519 86.8452 79.2613 84.3325C77.6416 81.1342 75.4949 78.2485 72.9373 75.787Z" fill="#6171A3"/>
        <path d="M72.9357 75.7875C67.2336 70.2995 59.4846 66.9231 50.9451 66.9231C42.4055 66.9231 34.6545 70.2981 28.9521 75.7864C35.1629 78.7541 42.6395 80.301 50.9451 80.301C59.2496 80.301 66.7254 78.7545 72.9357 75.7875Z" fill="#475A99"/>
        <path d="M85.1803 46.8213C85.1803 65.2994 69.8518 74.2649 50.9432 74.2649C32.0346 74.2649 16.7061 65.2994 16.7061 46.8213C16.7061 28.3432 32.0346 14.1331 50.9432 14.1331C69.8518 14.1331 85.1803 28.3432 85.1803 46.8213Z" fill="#FFDC64"/>
        <path d="M37.5168 28.5725C37.0207 28.5725 36.5369 28.3205 36.2617 27.865C31.3686 19.7685 20.0162 12.6289 16.4537 11.4955C15.6828 11.2502 15.2567 10.4264 15.502 9.65546C15.7471 8.88456 16.5705 8.4582 17.342 8.7037C21.3268 9.97148 33.4232 17.5043 38.7691 26.3496C39.1877 27.042 38.9654 27.9426 38.2731 28.3609C38.0361 28.5043 37.7748 28.5725 37.5168 28.5725Z" fill="#475A99"/>
        <path d="M15.9768 18.905C20.8347 18.905 24.7729 15.2394 24.7729 10.7175C24.7729 6.1957 20.8347 2.53003 15.9768 2.53003C11.1188 2.53003 7.18066 6.1957 7.18066 10.7175C7.18066 15.2394 11.1188 18.905 15.9768 18.905Z" fill="#6171A3"/>
        <path d="M64.3699 28.5726C64.1119 28.5726 63.8506 28.5044 63.6137 28.3613C62.9213 27.9427 62.6992 27.0423 63.1176 26.3499C68.4635 17.5046 80.5599 9.97182 84.5447 8.70404C85.3156 8.45893 86.1394 8.8849 86.3847 9.6558C86.6301 10.4267 86.2039 11.2505 85.433 11.4958C81.8705 12.6292 70.5181 19.7689 65.625 27.8654C65.3496 28.3207 64.8658 28.5726 64.3699 28.5726Z" fill="#475A99"/>
        <path d="M85.9084 18.905C90.7663 18.905 94.7045 15.2394 94.7045 10.7175C94.7045 6.1957 90.7663 2.53003 85.9084 2.53003C81.0505 2.53003 77.1123 6.1957 77.1123 10.7175C77.1123 15.2394 81.0505 18.905 85.9084 18.905Z" fill="#6171A3"/>
        <path d="M35.1742 52.7012C38.3878 52.7012 40.993 50.6266 40.993 48.0674C40.993 45.5082 38.3878 43.4336 35.1742 43.4336C31.9606 43.4336 29.3555 45.5082 29.3555 48.0674C29.3555 50.6266 31.9606 52.7012 35.1742 52.7012Z" fill="#EDA1AB"/>
        <path d="M66.7143 52.7012C69.9279 52.7012 72.533 50.6266 72.533 48.0674C72.533 45.5082 69.9279 43.4336 66.7143 43.4336C63.5006 43.4336 60.8955 45.5082 60.8955 48.0674C60.8955 50.6266 63.5006 52.7012 66.7143 52.7012Z" fill="#EDA1AB"/>
        <path d="M41.3371 44.4898C40.5281 44.4898 39.8723 43.8339 39.8723 43.0249C39.8723 42.3054 39.2869 41.7202 38.5674 41.7202C37.8479 41.7202 37.2627 42.3056 37.2627 43.0249C37.2627 43.8339 36.6068 44.4898 35.7979 44.4898C34.9889 44.4898 34.333 43.8339 34.333 43.0249C34.333 40.6899 36.2326 38.7905 38.5674 38.7905C40.9022 38.7905 42.802 40.6901 42.802 43.0249C42.802 43.8339 42.1461 44.4898 41.3371 44.4898Z" fill="#4F5C6F"/>
        <path d="M66.0959 44.4898C65.2869 44.4898 64.6311 43.8339 64.6311 43.0249C64.6311 42.3054 64.0457 41.7202 63.3264 41.7202C62.6068 41.7202 62.0215 42.3056 62.0215 43.0249C62.0215 43.8339 61.3656 44.4898 60.5566 44.4898C59.7477 44.4898 59.0918 43.8339 59.0918 43.0249C59.0918 40.6899 60.9914 38.7905 63.3264 38.7905C65.6613 38.7905 67.5608 40.6901 67.5608 43.0249C67.5608 43.8339 66.9049 44.4898 66.0959 44.4898Z" fill="#4F5C6F"/>
        <path d="M50.9457 49.0651C49.3965 49.0651 47.9231 48.3942 46.9036 47.2243C46.3719 46.6144 46.4356 45.6892 47.0454 45.1575C47.6551 44.6259 48.5805 44.6894 49.112 45.2993C49.575 45.8306 50.2434 46.1353 50.9456 46.1353C51.6477 46.1353 52.3161 45.8306 52.7791 45.2993C53.3108 44.6894 54.236 44.6259 54.8457 45.1575C55.4557 45.689 55.5192 46.6144 54.9875 47.2243C53.9684 48.3941 52.495 49.0651 50.9457 49.0651Z" fill="#4F5C6F"/>
    </g>
    <defs>
        <clipPath id="clip0">
            <rect width="100" height="100" fill="white" transform="translate(0.943359 0.586914)"/>
        </clipPath>
    </defs>
</svg>
