<svg width="32" height="33" viewBox="0 0 32 33" fill="none" xmlns="http://www.w3.org/2000/svg">
    <g clip-path="url(#clip0)">
        <path d="M11.833 22.5766C12.9625 24.9988 9.82148 28.854 6.73685 30.2924C4.31466 31.4219 1.61998 30.2879 0.490477 27.8658C-0.639023 25.4436 0.224415 22.6504 2.6466 21.5209C5.73129 20.0825 10.7035 20.1544 11.833 22.5766Z" fill="#CCEFF7"/>
        <path d="M11.8331 22.5767C11.4842 21.8285 10.7686 21.3049 9.85543 20.9805C7.00631 22.6672 4.90237 25.4925 4.18518 28.8459C4.05143 29.4712 4.08193 30.1067 4.26287 30.6993C5.07156 30.7961 5.91968 30.6736 6.73693 30.2925C9.82162 28.854 12.9626 24.9988 11.8331 22.5767Z" fill="#8CD6FE"/>
        <path d="M3.74743 26.1195C3.56593 26.1195 3.39318 26.0134 3.31675 25.8362C3.21425 25.5984 3.32387 25.3226 3.56162 25.2201C5.31387 24.4647 8.18374 23.873 10.0953 23.873C10.3542 23.873 10.5641 24.0829 10.5641 24.3418C10.5641 24.6007 10.3542 24.8105 10.0953 24.8105C8.32231 24.8105 5.55781 25.3805 3.93281 26.081C3.87231 26.1072 3.80937 26.1195 3.74743 26.1195Z" fill="#8CD6FE"/>
        <path d="M20.1669 22.5766C19.0374 24.9988 22.1784 28.854 25.263 30.2924C27.6852 31.4219 30.3799 30.2879 31.5094 27.8658C32.6389 25.4436 31.7754 22.6504 29.3532 21.5209C26.2686 20.0825 21.2964 20.1544 20.1669 22.5766Z" fill="#CCEFF7"/>
        <path d="M20.1669 22.5767C20.5157 21.8285 21.2314 21.3049 22.1446 20.9805C24.9937 22.6672 27.0976 25.4925 27.8148 28.8459C27.9486 29.4712 27.9181 30.1067 27.7371 30.6993C26.9284 30.7961 26.0803 30.6736 25.2631 30.2925C22.1784 28.854 19.0374 24.9988 20.1669 22.5767Z" fill="#8CD6FE"/>
        <path d="M28.2531 26.1195C28.1912 26.1195 28.1283 26.1071 28.0678 26.081C26.4428 25.3805 23.6783 24.8105 21.9053 24.8105C21.6464 24.8105 21.4365 24.6007 21.4365 24.3418C21.4365 24.0829 21.6464 23.873 21.9053 23.873C23.8168 23.873 26.6867 24.4647 28.4389 25.2201C28.6766 25.3226 28.7863 25.5984 28.6838 25.8362C28.6074 26.0135 28.4346 26.1195 28.2531 26.1195Z" fill="#8CD6FE"/>
        <path d="M25.0613 26.8032C23.1771 25.8051 20.3096 24.9963 16.0001 24.9963C11.6907 24.9963 8.82318 25.8052 6.93893 26.8032C6.55156 27.5682 6.25818 28.3887 6.074 29.2498C5.83937 30.347 6.67112 31.3829 7.79318 31.3829H24.207C25.3291 31.3829 26.1608 30.347 25.9262 29.2498C25.7421 28.3886 25.4486 27.5681 25.0613 26.8032Z" fill="#FFDC64"/>
        <path d="M23.0381 24.0685L23.0379 24.0688C21.047 24.0688 10.9542 24.0684 8.96326 24.0684V24.0684C8.14476 24.8561 7.45777 25.7795 6.93945 26.803C8.79845 27.6072 11.6912 28.097 16.0006 28.097C20.3101 28.097 23.2028 27.6072 25.0618 26.8031C24.5435 25.7797 23.8566 24.8562 23.0381 24.0685Z" fill="#6171A3"/>
        <path d="M23.0376 24.0688C21.213 22.3126 18.7333 21.2322 16.0006 21.2322C13.268 21.2322 10.7876 22.3122 8.96289 24.0684C10.9503 25.0181 13.3428 25.5131 16.0006 25.5131C18.6581 25.5131 21.0503 25.0182 23.0376 24.0688Z" fill="#475A99"/>
        <path d="M26.9557 14.7996C26.9557 20.7126 22.0506 23.5815 15.9998 23.5815C9.94907 23.5815 5.04395 20.7126 5.04395 14.7996C5.04395 8.8866 9.94907 4.33936 15.9998 4.33936C22.0506 4.33936 26.9557 8.8866 26.9557 14.7996Z" fill="#FFDC64"/>
        <path d="M11.7037 8.96005C11.5449 8.96005 11.3901 8.87943 11.302 8.73368C9.73622 6.1428 6.10347 3.85811 4.96347 3.49543C4.71679 3.41693 4.58041 3.1533 4.65891 2.90661C4.73735 2.65993 5.00085 2.52349 5.24772 2.60205C6.52285 3.00774 10.3937 5.41824 12.1044 8.24874C12.2383 8.4703 12.1672 8.75849 11.9457 8.89236C11.8698 8.93824 11.7862 8.96005 11.7037 8.96005Z" fill="#475A99"/>
        <path d="M4.81084 5.86646C6.36539 5.86646 7.62559 4.69345 7.62559 3.24646C7.62559 1.79948 6.36539 0.626465 4.81084 0.626465C3.2563 0.626465 1.99609 1.79948 1.99609 3.24646C1.99609 4.69345 3.2563 5.86646 4.81084 5.86646Z" fill="#6171A3"/>
        <path d="M20.2965 8.95994C20.2139 8.95994 20.1303 8.93813 20.0545 8.89232C19.8329 8.75838 19.7619 8.47026 19.8957 8.24869C21.6064 5.41819 25.4773 3.00769 26.7524 2.602C26.9991 2.52357 27.2627 2.65988 27.3412 2.90657C27.4197 3.15325 27.2834 3.41688 27.0367 3.49538C25.8967 3.85807 22.2639 6.14275 20.6981 8.73363C20.61 8.87932 20.4552 8.95994 20.2965 8.95994Z" fill="#475A99"/>
        <path d="M27.1888 5.86646C28.7433 5.86646 30.0035 4.69345 30.0035 3.24646C30.0035 1.79948 28.7433 0.626465 27.1888 0.626465C25.6342 0.626465 24.374 1.79948 24.374 3.24646C24.374 4.69345 25.6342 5.86646 27.1888 5.86646Z" fill="#6171A3"/>
        <path d="M10.9538 16.6812C11.9822 16.6812 12.8158 16.0173 12.8158 15.1984C12.8158 14.3795 11.9822 13.7156 10.9538 13.7156C9.92544 13.7156 9.0918 14.3795 9.0918 15.1984C9.0918 16.0173 9.92544 16.6812 10.9538 16.6812Z" fill="#EDA1AB"/>
        <path d="M21.0466 16.6812C22.0749 16.6812 22.9086 16.0173 22.9086 15.1984C22.9086 14.3795 22.0749 13.7156 21.0466 13.7156C20.0182 13.7156 19.1846 14.3795 19.1846 15.1984C19.1846 16.0173 20.0182 16.6812 21.0466 16.6812Z" fill="#EDA1AB"/>
        <path d="M12.9259 14.0535C12.667 14.0535 12.4571 13.8436 12.4571 13.5847C12.4571 13.3545 12.2698 13.1672 12.0396 13.1672C11.8093 13.1672 11.6221 13.3545 11.6221 13.5847C11.6221 13.8436 11.4122 14.0535 11.1533 14.0535C10.8944 14.0535 10.6846 13.8436 10.6846 13.5847C10.6846 12.8375 11.2924 12.2297 12.0396 12.2297C12.7867 12.2297 13.3946 12.8376 13.3946 13.5847C13.3946 13.8436 13.1848 14.0535 12.9259 14.0535Z" fill="#4F5C6F"/>
        <path d="M20.8487 14.0535C20.5899 14.0535 20.38 13.8436 20.38 13.5847C20.38 13.3545 20.1927 13.1672 19.9625 13.1672C19.7322 13.1672 19.5449 13.3545 19.5449 13.5847C19.5449 13.8436 19.335 14.0535 19.0762 14.0535C18.8173 14.0535 18.6074 13.8436 18.6074 13.5847C18.6074 12.8375 19.2153 12.2297 19.9625 12.2297C20.7097 12.2297 21.3175 12.8376 21.3175 13.5847C21.3175 13.8436 21.1076 14.0535 20.8487 14.0535Z" fill="#4F5C6F"/>
        <path d="M16.0007 15.5177C15.5049 15.5177 15.0334 15.303 14.7072 14.9286C14.5371 14.7335 14.5574 14.4374 14.7526 14.2673C14.9477 14.0971 15.2438 14.1175 15.4139 14.3126C15.5621 14.4826 15.7759 14.5801 16.0006 14.5801C16.2253 14.5801 16.4392 14.4826 16.5874 14.3126C16.7575 14.1175 17.0536 14.0971 17.2487 14.2673C17.4439 14.4373 17.4642 14.7335 17.2941 14.9286C16.9679 15.303 16.4964 15.5177 16.0007 15.5177Z" fill="#4F5C6F"/>
    </g>
    <defs>
        <clipPath id="clip0">
            <rect width="32" height="32" fill="white" transform="translate(0 0.00463867)"/>
        </clipPath>
    </defs>
</svg>
