<svg id="Layer_1" data-name="Layer 1" xmlns="http://www.w3.org/2000/svg" viewBox="0 0 197.62 196.78"><defs><style>.cls-1{fill:none;stroke:#47261f;stroke-linecap:round;stroke-miterlimit:10;stroke-width:4px;}.cls-2{fill:#ccdafc;}.cls-3{fill:#fcd133;}.cls-4{fill:#47261f;}.cls-5{fill:#9cd5fa;}.cls-6{fill:#fff;}</style></defs><path class="cls-1" d="M223.84,346.32s-20.5-17.22-8-38.29" transform="translate(-151.56 -151.55)"/><ellipse class="cls-2" cx="122.43" cy="60.71" rx="23.41" ry="40.05"/><path class="cls-3" d="M347.48,275.62c-12.09,1.88-19.89-3.78-24.87-11.62l-.05-.07c-9-18.19-31-31.06-56.78-31.06-33.73,0-61.08,22-61.08,49.15s27.35,49.15,61.08,49.15c28.84,0,53-16.09,59.39-37.73,8-2.46,20.21-7.46,23.86-15.83C349.39,276.39,349.21,275.35,347.48,275.62Z" transform="translate(-151.56 -151.55)"/><path class="cls-4" d="M228,243.41a56.28,56.28,0,0,0-11.65,9.74,48,48,0,0,1,6.89,25.49c0,11.66-3.7,22.1-9.52,29.1a53.63,53.63,0,0,0,10.85,10.56c8.55-9.78,13.93-23.94,13.93-39.66C238.51,265.15,234.54,252.82,228,243.41Z" transform="translate(-151.56 -151.55)"/><path class="cls-4" d="M310.93,248.93a64.11,64.11,0,0,0-26.09-13.61c7.33,8.9,13.08,25.5,13.08,46.25,0,21.69-6.29,38.85-14.08,47.42a64.58,64.58,0,0,0,26.73-13.57,117.1,117.1,0,0,0,.36-66.49Z" transform="translate(-151.56 -151.55)"/><path class="cls-4" d="M278,278.64c0-17-4.43-33.16-12.5-45.77a74.31,74.31,0,0,0-21.65,3.27c9,9,15.07,24.85,15.07,42.5,0,21.29-8.86,40-20.94,47.15a72.19,72.19,0,0,0,22.71,5.2q1.85-2.19,3.54-4.65C273.13,313.47,278,296.53,278,278.64Z" transform="translate(-151.56 -151.55)"/><ellipse class="cls-5" cx="304.01" cy="223.44" rx="37.1" ry="25.46" transform="matrix(0.59, -0.81, 0.81, 0.59, -207.15, 186.07)"/><path class="cls-1" d="M253.43,343.58s-23.12-19.25-14.08-40.46" transform="translate(-151.56 -151.55)"/><ellipse class="cls-3" cx="52.83" cy="76.63" rx="52.83" ry="51.66"/><path class="cls-6" d="M236.15,250.25c-16.9,20.17-44.3,20.17-61.2,0Z" transform="translate(-151.56 -151.55)"/><path class="cls-6" d="M170.66,240.07a14.81,14.81,0,0,1,0-21.26,15.61,15.61,0,0,1,21.75,0,14.79,14.79,0,0,1,0,21.26" transform="translate(-151.56 -151.55)"/><path class="cls-6" d="M216.77,240.07a14.79,14.79,0,0,1,0-21.26,15.6,15.6,0,0,1,21.74,0,14.79,14.79,0,0,1,0,21.26" transform="translate(-151.56 -151.55)"/><ellipse class="cls-4" cx="30.06" cy="78.15" rx="7.99" ry="7.81"/><ellipse class="cls-4" cx="76.6" cy="78.15" rx="7.99" ry="7.81"/><path class="cls-1" d="M253,159.61s-28.81,8.46-28.81,31" transform="translate(-151.56 -151.55)"/><ellipse class="cls-4" cx="101.48" cy="8.07" rx="4.8" ry="4.7"/><path class="cls-1" d="M205.21,156.24s-19.28,11.83-19.28,34.37" transform="translate(-151.56 -151.55)"/><ellipse class="cls-4" cx="53.65" cy="4.7" rx="4.8" ry="4.7"/><ellipse class="cls-5" cx="32.99" cy="74.46" rx="1.25" ry="1.23"/><ellipse class="cls-5" cx="79.63" cy="74.46" rx="1.25" ry="1.23"/></svg>