<svg width="36" height="32" viewBox="0 0 36 32" fill="none" xmlns="http://www.w3.org/2000/svg">
<path d="M4.99906 15.0941C2.51872 12.8187 1.77588 9.59203 3.33987 7.88722C4.90386 6.1824 8.18243 6.645 10.6628 8.92046C13.1431 11.1959 13.8859 14.4225 12.322 16.1274C10.758 17.8322 7.47939 17.3696 4.99906 15.0941Z" fill="#9CD5FA"/>
<path d="M24.1237 32.0001C24.1237 32.0001 27.4913 29.1747 25.4215 25.7085" stroke="#47261F" stroke-width="0.90987" stroke-miterlimit="10" stroke-linecap="round"/>
<path d="M3.81907 20.3859C5.80677 20.698 7.0881 19.7616 7.90946 18.4803C7.90946 18.4803 7.90946 18.4803 7.90946 18.4639C9.38792 15.4741 13.0019 13.355 17.2402 13.355C22.7761 13.355 27.2772 16.969 27.2772 21.4372C27.2772 25.9054 22.7926 29.5194 17.2402 29.5194C12.5091 29.5194 8.5337 26.8746 7.48235 23.3263C6.16817 22.9157 4.16404 22.0943 3.55623 20.7308C3.50695 20.5008 3.53981 20.3366 3.81907 20.3859Z" fill="#FCD133"/>
<path d="M23.45 15.0967C24.1728 15.5566 24.8134 16.0987 25.372 16.6901C24.6656 17.8072 24.2385 19.2692 24.2385 20.8791C24.2385 22.8011 24.8463 24.5095 25.7991 25.6594C25.3063 26.3001 24.7149 26.8915 24.0249 27.4007C22.5958 25.7908 21.7087 23.4582 21.7087 20.8791C21.7087 18.6614 22.3658 16.6408 23.45 15.0967Z" fill="#47261F"/>
<path d="M9.81506 16.0002C10.965 14.9817 12.4434 14.2096 14.1026 13.7661C12.9034 15.2281 11.9506 17.9551 11.9506 21.3555C11.9506 24.9202 12.9855 27.7293 14.2668 29.142C12.5584 28.7149 11.0635 27.9429 9.88076 26.9079C9.35509 25.2652 9.0594 23.3761 9.0594 21.3555C9.0594 19.4171 9.33867 17.5937 9.81506 16.0002Z" fill="#47261F"/>
<path d="M15.2201 20.8787C15.2201 18.086 15.9429 15.4248 17.2735 13.355C18.5219 13.355 19.7211 13.5521 20.8218 13.8971C19.3433 15.3755 18.3412 17.9875 18.3412 20.8787C18.3412 24.3777 19.8033 27.4496 21.7745 28.6159C20.6411 29.0759 19.3762 29.388 18.0455 29.4701C17.8484 29.2237 17.6513 28.9773 17.4706 28.6981C16.025 26.5954 15.2201 23.8192 15.2201 20.8787Z" fill="#47261F"/>
<path d="M19.2608 31.5407C19.2608 31.5407 23.0555 28.3703 21.577 24.8877" stroke="#47261F" stroke-width="0.90987" stroke-miterlimit="10" stroke-linecap="round"/>
<path d="M14.9188 16.7075C12.8042 16.5184 11.3522 13.4348 11.6755 9.82027C11.9988 6.20569 13.9751 3.42882 16.0896 3.61797C18.2042 3.80712 19.6562 6.89065 19.3329 10.5052C19.0096 14.1198 17.0333 16.8967 14.9188 16.7075Z" fill="#CCDAFC"/>
<path d="M27.3264 21.0761C22.5361 21.0761 18.6528 17.2737 18.6528 12.5832C18.6528 7.89273 22.5361 4.09033 27.3264 4.09033C32.1167 4.09033 36 7.89273 36 12.5832C36 17.2737 32.1167 21.0761 27.3264 21.0761Z" fill="#FCD133"/>
<path d="M22.1024 16.2129C24.8786 19.5312 29.3797 19.5312 32.1559 16.2129H22.1024Z" fill="white"/>
<path d="M32.8623 14.5379C33.848 13.5687 33.848 12.0081 32.8623 11.0389C31.8767 10.0697 30.2833 10.0697 29.2976 11.0389C28.312 12.0081 28.312 13.5687 29.2976 14.5379" fill="white"/>
<path d="M25.2895 14.5379C26.2751 13.5687 26.2751 12.0081 25.2895 11.0389C24.3038 10.0697 22.7104 10.0697 21.7247 11.0389C20.7391 12.0081 20.7391 13.5687 21.7247 14.5379" fill="white"/>
<path d="M31.0554 14.1276C30.3296 14.1276 29.7413 13.5539 29.7413 12.8463C29.7413 12.1386 30.3296 11.5649 31.0554 11.5649C31.7812 11.5649 32.3696 12.1386 32.3696 12.8463C32.3696 13.5539 31.7812 14.1276 31.0554 14.1276Z" fill="#47261F"/>
<path d="M23.4168 14.1276C22.691 14.1276 22.1026 13.5539 22.1026 12.8463C22.1026 12.1386 22.691 11.5649 23.4168 11.5649C24.1426 11.5649 24.731 12.1386 24.731 12.8463C24.731 13.5539 24.1426 14.1276 23.4168 14.1276Z" fill="#47261F"/>
<path d="M19.3262 1.33057C19.3262 1.33057 24.0573 2.72688 24.0573 6.42302" stroke="#47261F" stroke-width="0.90987" stroke-miterlimit="10" stroke-linecap="round"/>
<path d="M19.3254 2.10276C18.8899 2.10276 18.5369 1.75708 18.5369 1.33068C18.5369 0.904267 18.8899 0.558594 19.3254 0.558594C19.7609 0.558594 20.1139 0.904267 20.1139 1.33068C20.1139 1.75708 19.7609 2.10276 19.3254 2.10276Z" fill="#47261F"/>
<path d="M27.1953 0.771973C27.1953 0.771973 30.3657 2.71039 30.3657 6.42296" stroke="#47261F" stroke-width="0.90987" stroke-miterlimit="10" stroke-linecap="round"/>
<path d="M27.1955 1.54416C26.76 1.54416 26.407 1.19849 26.407 0.772082C26.407 0.345673 26.76 0 27.1955 0C27.631 0 27.984 0.345673 27.984 0.772082C27.984 1.19849 27.631 1.54416 27.1955 1.54416Z" fill="#47261F"/>
<path d="M30.5787 12.4353C30.4607 12.4353 30.3651 12.347 30.3651 12.2381C30.3651 12.1293 30.4607 12.041 30.5787 12.041C30.6966 12.041 30.7922 12.1293 30.7922 12.2381C30.7922 12.347 30.6966 12.4353 30.5787 12.4353Z" fill="#9CD5FA"/>
<path d="M22.9238 12.4353C22.8058 12.4353 22.7102 12.347 22.7102 12.2381C22.7102 12.1293 22.8058 12.041 22.9238 12.041C23.0417 12.041 23.1373 12.1293 23.1373 12.2381C23.1373 12.347 23.0417 12.4353 22.9238 12.4353Z" fill="#9CD5FA"/>
</svg>
