<svg id="Layer_1" data-name="Layer 1" xmlns="http://www.w3.org/2000/svg" viewBox="0 0 68.55 91.07"><defs><style>.cls-1,.cls-3{fill:#fcd133;}.cls-1{stroke:#47261f;stroke-linecap:round;stroke-miterlimit:10;stroke-width:4px;}.cls-2{fill:#47261f;}</style></defs><path class="cls-1" d="M210.91,280.58v6.48a7,7,0,0,1-7,7H175.1a7,7,0,0,1-7-7v-6.48" transform="translate(-155.22 -205.03)"/><path class="cls-2" d="M217,212.74a7.72,7.72,0,1,0-13.25,5.36l-5.21,17.82a3.82,3.82,0,0,0,2.58,4.73,4,4,0,0,0,1.08.15,3.82,3.82,0,0,0,3.65-2.74L211,220.24A7.71,7.71,0,0,0,217,212.74Z" transform="translate(-155.22 -205.03)"/><path class="cls-1" d="M212.67,265.15H166.32c-4.67,0-8.49-3.47-8.49-7.71h0c0-4.25,3.82-7.72,8.49-7.72h46.35c4.66,0,8.48,3.47,8.48,7.72h0C221.15,261.68,217.33,265.15,212.67,265.15Z" transform="translate(-155.22 -205.03)"/><path class="cls-1" d="M213.88,249.72H165.11c-4.34,0-7.89-3.16-7.89-7v-9.4h64.55v9.4C221.77,246.56,218.22,249.72,213.88,249.72Z" transform="translate(-155.22 -205.03)"/><rect class="cls-1" x="5.5" y="60.13" width="57.54" height="15.43" rx="7.71"/><path class="cls-3" d="M189.61,231.25c0-1.14-.17-2.07-2.4-2.07h-11.1c-2.22,0-2.65.93-2.65,2.07v46a4,4,0,1,0,8.07,0V261.91a4,4,0,1,0,8.08,0Z" transform="translate(-155.22 -205.03)"/></svg>