<svg width="41" height="41" viewBox="0 0 41 41" fill="none" xmlns="http://www.w3.org/2000/svg">
    <circle cx="20.5006" cy="20.5099" r="19.9771" fill="#CCEFF7"/>
    <g clip-path="url(#clip0)">
        <path d="M13.7881 6.08643H26.7232C27.085 6.08643 27.432 6.23016 27.6878 6.486C27.9437 6.74184 28.0874 7.08884 28.0874 7.45066V8.49799H12.4238V7.45066C12.4238 7.08884 12.5676 6.74184 12.8234 6.486C13.0792 6.23016 13.4262 6.08643 13.7881 6.08643V6.08643Z" fill="#4C241D"/>
        <path d="M33.5255 23.4662V24.1696C33.5333 27.8506 32.2273 31.4137 29.8424 34.2178C29.6526 34.4434 29.416 34.6251 29.1492 34.7506C28.8823 34.876 28.5914 34.9421 28.2966 34.9443H12.7219C12.4239 34.9439 12.1296 34.8786 11.8594 34.7532C11.5891 34.6277 11.3493 34.445 11.1567 34.2178C8.77743 31.4104 7.47223 27.8495 7.47363 24.1696V23.4662C7.47366 21.3313 7.91401 19.2194 8.76715 17.2624C9.6203 15.3054 10.8679 13.5454 12.432 12.0924C12.0035 12.0287 11.612 11.8136 11.3284 11.486C11.0448 11.1585 10.8879 10.7402 10.8862 10.3069V10.0132C10.8872 9.53282 11.0785 9.07239 11.4182 8.73269C11.7579 8.393 12.2183 8.2017 12.6987 8.20068H28.1845C28.6649 8.2017 29.1253 8.393 29.465 8.73269C29.8047 9.07239 29.996 9.53282 29.997 10.0132V10.3069C29.9959 10.7231 29.8516 11.1261 29.5884 11.4484C29.3252 11.7707 28.9591 11.9927 28.5516 12.077C30.1205 13.5304 31.3721 15.2923 32.228 17.2521C33.0839 19.212 33.5256 21.3276 33.5255 23.4662Z" fill="#FFFAF5"/>
        <path d="M30.9481 23.443V24.0227C30.9487 26.9664 29.9021 29.8144 27.9955 32.0573C27.8432 32.2375 27.654 32.3829 27.4406 32.4836C27.2272 32.5843 26.9947 32.6379 26.7588 32.6409H14.2604C14.0209 32.6402 13.7845 32.5873 13.5675 32.4859C13.3506 32.3844 13.1584 32.2369 13.0044 32.0535C11.1013 29.81 10.0551 26.9646 10.0518 24.0227V23.443C10.0516 20.2074 11.31 17.0987 13.5609 14.7745C13.792 14.5405 14.0678 14.3553 14.3719 14.2298C14.6759 14.1043 15.002 14.0412 15.3309 14.044H25.669C25.9978 14.0412 26.324 14.1043 26.628 14.2298C26.9321 14.3553 27.2078 14.5405 27.439 14.7745C29.6898 17.0987 30.9483 20.2074 30.9481 23.443Z" fill="#FFC850"/>
        <g style="mix-blend-mode:overlay" opacity="0.4">
            <path d="M30.9479 23.4427V24.0224C30.9494 24.7913 30.8782 25.5587 30.7354 26.3142C28.3235 25.5004 26.0219 24.3905 23.8833 23.0099C19.9027 20.4785 13.9511 20.3432 10.3994 20.5403C10.9216 18.3759 12.0131 16.3904 13.5607 14.7897C13.7926 14.5569 14.0686 14.3728 14.3725 14.248C14.6764 14.1233 15.0022 14.0604 15.3308 14.0631H25.6688C25.9974 14.0595 26.3235 14.122 26.6275 14.2468C26.9316 14.3716 27.2075 14.5562 27.4388 14.7897C29.6859 17.1101 30.9441 20.2126 30.9479 23.4427Z" fill="#FDFEFE"/>
        </g>
        <g clip-path="url(#clip1)">
            <path d="M20.8654 17.9804C21.017 17.5475 21.3461 17.0447 21.7879 16.6759C22.186 16.3428 22.6641 16.1194 23.175 16.0278C23.1991 16.0235 23.2238 16.024 23.2477 16.0293C23.2716 16.0346 23.2942 16.0445 23.3143 16.0585C23.3343 16.0725 23.3515 16.0904 23.3646 16.111C23.3778 16.1316 23.3868 16.1546 23.3911 16.1787C23.3953 16.2029 23.3948 16.2276 23.3895 16.2515C23.3843 16.2754 23.3743 16.298 23.3603 16.3181C23.3463 16.3381 23.3285 16.3552 23.3078 16.3684C23.2872 16.3816 23.2642 16.3906 23.2401 16.3948C22.2957 16.5619 21.5414 17.2351 21.2196 18.0975C21.1572 18.349 20.7747 18.2394 20.8654 17.9804ZM21.2245 18.0473C21.225 18.0591 21.2243 18.0709 21.2223 18.0826C21.2243 18.0709 21.2251 18.0591 21.2245 18.0473Z" fill="#E2E2E2"/>
            <path d="M19.2827 18.1573C19.2704 18.1391 19.2613 18.1188 19.2559 18.0974C18.936 17.2398 18.186 16.5623 17.2354 16.3943C17.211 16.3903 17.1877 16.3815 17.1668 16.3684C17.1458 16.3553 17.1277 16.3383 17.1134 16.3181C17.0992 16.298 17.089 16.2752 17.0836 16.2512C17.0782 16.2271 17.0777 16.2022 17.0819 16.1779C17.0862 16.1536 17.0953 16.1304 17.1086 16.1096C17.122 16.0889 17.1393 16.071 17.1596 16.0569C17.1799 16.0429 17.2028 16.0331 17.2269 16.028C17.2511 16.0229 17.276 16.0226 17.3002 16.0272C17.8112 16.1187 18.2893 16.3422 18.6872 16.6756C19.0918 17.0151 19.4044 17.451 19.5964 17.9431C19.7067 18.2254 19.3963 18.3243 19.2827 18.1573ZM19.2507 18.0507C19.2504 18.0612 19.2511 18.0717 19.2529 18.082C19.2512 18.0717 19.2504 18.0612 19.2507 18.0507Z" fill="#E2E2E2"/>
            <path d="M20.2567 28.7494C20.2073 28.7494 20.1599 28.7298 20.1249 28.6948C20.09 28.6598 20.0703 28.6124 20.0703 28.563V27.642C20.0703 27.5925 20.09 27.5451 20.1249 27.5102C20.1599 27.4752 20.2073 27.4556 20.2567 27.4556C20.3061 27.4556 20.3536 27.4752 20.3885 27.5102C20.4235 27.5451 20.4431 27.5925 20.4431 27.642V28.563C20.4431 28.6124 20.4235 28.6598 20.3885 28.6948C20.3536 28.7298 20.3061 28.7494 20.2567 28.7494Z" fill="#696B70"/>
            <path d="M20.2565 17.7363C19.4575 17.7363 18.8096 18.4243 18.8096 19.2727C18.8081 19.4936 18.853 19.7122 18.9416 19.9145C19.0302 20.1168 19.1605 20.2982 19.3238 20.4468H21.1895C22.2137 19.5292 21.6058 17.7363 20.2565 17.7363Z" fill="#696B70"/>
            <path d="M20.5051 17.759C19.6143 17.595 18.8096 18.3232 18.8096 19.2723C18.8081 19.4931 18.853 19.7118 18.9416 19.9141C19.0302 20.1164 19.1605 20.2977 19.3238 20.4463H19.8209C18.8862 19.608 19.295 17.9814 20.5051 17.759Z" fill="#5C5F63"/>
            <path d="M22.2099 24.6032C20.4041 22.8558 20.2552 20.583 20.2552 20.583C20.1839 21.2585 19.8476 23.1294 18.2729 24.634L18.2454 24.7481C18.1365 25.2019 18.1745 25.6786 18.3539 26.1094C18.5332 26.5403 18.8447 26.9031 19.2434 27.1456L19.8049 27.4871C19.9375 27.5677 20.0898 27.6103 20.245 27.6103C20.4002 27.6103 20.5525 27.5677 20.6852 27.4871L21.3502 27.0825C21.7191 26.8583 22.0073 26.5228 22.1732 26.1243C22.3392 25.7258 22.3743 25.2849 22.2735 24.8651L22.2099 24.6032Z" fill="#FFBE26"/>
            <path d="M19.7423 27.3688C19.3436 27.1263 19.0321 26.7636 18.8527 26.3328C18.6734 25.9021 18.6354 25.4255 18.7442 24.9717L18.7718 24.8567C19.7954 23.8795 20.2955 22.7472 20.54 21.8885C20.3228 21.2123 20.257 20.621 20.2567 20.5562C20.2567 20.5652 20.2562 20.5742 20.2552 20.5832C20.1839 21.2587 19.8476 23.1296 18.273 24.6342L18.2454 24.7481C18.1365 25.2018 18.1745 25.6785 18.3539 26.1093C18.5332 26.5401 18.8447 26.9029 19.2435 27.1453L19.8049 27.4868C19.9024 27.5463 20.0109 27.5853 20.124 27.6014L19.7423 27.3688Z" fill="#F99A25"/>
            <path d="M18.7842 24.0833H21.7307C21.4119 23.696 21.1392 23.273 20.918 22.8228H19.5964C19.3754 23.273 19.1028 23.696 18.7842 24.0833Z" fill="#696B70"/>
            <path d="M19.5976 22.8228C19.3767 23.2731 19.104 23.6961 18.7852 24.0833H19.4602C19.7535 23.6921 20.0021 23.2693 20.2013 22.8228H19.5976Z" fill="#5C5F63"/>
            <path d="M18.6426 26.6035H21.8918C22.1748 26.2447 22.3291 25.8012 22.3302 25.3442H18.1875C18.2051 25.801 18.3641 26.241 18.6426 26.6035Z" fill="#696B70"/>
            <path d="M18.9905 26.6035C18.7663 26.2234 18.6614 25.7847 18.6895 25.3442H18.1875C18.1875 25.7128 18.3485 26.2389 18.6416 26.6045L18.9905 26.6035Z" fill="#5C5F63"/>
            <path d="M20.2349 20.583C20.3094 21.2933 20.6775 23.325 22.4699 24.8617C23.3149 25.5861 24.6119 25.5106 25.3359 24.6651C25.5089 24.4633 25.6402 24.2292 25.7222 23.9764C25.8043 23.7236 25.8354 23.457 25.8139 23.1921C25.7924 22.9272 25.7186 22.6691 25.5969 22.4328C25.4751 22.1966 25.3078 21.9867 25.1045 21.8155C23.2791 20.2746 21.1902 20.2535 20.4725 20.2995C20.438 20.3018 20.4044 20.3112 20.3736 20.3268C20.3428 20.3425 20.3155 20.3642 20.2933 20.3907C20.2712 20.4172 20.2545 20.4479 20.2445 20.4809C20.2345 20.514 20.2312 20.5487 20.2349 20.583Z" fill="#AAE8FF"/>
            <path d="M23.0168 24.8611C21.2242 23.3245 20.8564 21.293 20.7816 20.5825C20.7779 20.5481 20.7813 20.5133 20.7914 20.4803C20.8016 20.4472 20.8183 20.4166 20.8406 20.3901C20.8629 20.3637 20.8903 20.342 20.9211 20.3264C20.952 20.3108 20.9857 20.3016 21.0202 20.2994C21.051 20.2974 21.0843 20.2957 21.1196 20.2942C20.9042 20.2846 20.6885 20.2863 20.4734 20.2994C20.4389 20.3016 20.4052 20.3108 20.3744 20.3264C20.3435 20.342 20.3161 20.3637 20.2938 20.3901C20.2715 20.4166 20.2548 20.4472 20.2447 20.4803C20.2346 20.5133 20.2312 20.5481 20.2348 20.5825C20.3094 21.2928 20.6774 23.3245 22.4698 24.8611C22.6905 25.0496 22.9484 25.1894 23.2268 25.2715C23.5051 25.3536 23.7976 25.3761 24.0852 25.3375C23.6904 25.2856 23.3192 25.1201 23.0168 24.8611Z" fill="#6BD9FC"/>
            <path d="M20.28 20.583C20.2054 21.2933 19.8374 23.325 18.045 24.8617C17.2 25.5861 15.9029 25.5106 15.179 24.6651C15.006 24.4633 14.8747 24.2292 14.7926 23.9764C14.7106 23.7236 14.6794 23.457 14.7009 23.1921C14.7225 22.9272 14.7962 22.6691 14.918 22.4328C15.0397 22.1966 15.2071 21.9867 15.4104 21.8155C17.2358 20.2746 19.3249 20.2535 20.0424 20.2995C20.0769 20.3018 20.1105 20.3112 20.1413 20.3268C20.172 20.3425 20.1993 20.3642 20.2215 20.3907C20.2437 20.4172 20.2603 20.4479 20.2704 20.4809C20.2804 20.514 20.2837 20.5487 20.28 20.583Z" fill="#AAE8FF"/>
            <path d="M15.6762 24.6651C15.5032 24.4633 15.3718 24.2292 15.2898 23.9764C15.2077 23.7235 15.1765 23.457 15.198 23.192C15.2195 22.927 15.2933 22.669 15.4151 22.4327C15.5369 22.1964 15.7043 21.9865 15.9076 21.8153C17.349 20.599 18.954 20.3296 19.9193 20.2928C19.1066 20.2605 17.1398 20.3559 15.4105 21.8153C15.2074 21.9866 15.0402 22.1965 14.9186 22.4327C14.7969 22.669 14.7233 22.927 14.7019 23.1918C14.6804 23.4567 14.7117 23.7232 14.7938 23.9759C14.8758 24.2287 15.0072 24.4627 15.1801 24.6644C15.6302 25.1918 16.3035 25.4189 16.9514 25.3411C16.4564 25.2843 16.001 25.0429 15.6762 24.6651Z" fill="#6BD9FC"/>
            <path d="M16.2734 23.8532C16.2353 23.8533 16.1982 23.8416 16.1669 23.8199C16.1357 23.7982 16.1119 23.7675 16.0986 23.7318C16.0853 23.6961 16.0833 23.6573 16.0928 23.6204C16.1023 23.5836 16.1228 23.5505 16.1516 23.5257L18.6987 21.3294C18.7362 21.2972 18.7849 21.281 18.8342 21.2847C18.8835 21.2883 18.9294 21.3114 18.9617 21.3488C18.994 21.3863 19.0101 21.435 19.0064 21.4843C19.0028 21.5336 18.9797 21.5795 18.9423 21.6118L16.3951 23.8073C16.3614 23.8367 16.3182 23.8531 16.2734 23.8532Z" fill="#6BD9FC"/>
            <path d="M24.1187 23.8077L21.5716 21.6117C21.5361 21.5788 21.5147 21.5335 21.512 21.4852C21.5093 21.437 21.5254 21.3895 21.557 21.3529C21.5886 21.3162 21.6331 21.2933 21.6813 21.2889C21.7294 21.2844 21.7774 21.2989 21.8151 21.3291L24.3623 23.5254C24.3997 23.5577 24.4228 23.6035 24.4264 23.6528C24.4301 23.7021 24.414 23.7509 24.3817 23.7883C24.3494 23.8257 24.3035 23.8488 24.2542 23.8524C24.2049 23.8561 24.1562 23.84 24.1187 23.8077Z" fill="#6BD9FC"/>
        </g>
    </g>
    <defs>
        <clipPath id="clip0">
            <rect width="26.0518" height="28.846" fill="white" transform="translate(7.47559 6.08691)"/>
        </clipPath>
        <clipPath id="clip1">
            <rect width="11.1243" height="12.7246" fill="white" transform="translate(14.6943 16.0249)"/>
        </clipPath>
    </defs>
</svg>
