<svg xmlns="http://www.w3.org/2000/svg" viewBox="0 0 67.41 74.64"><defs><style>.cls-1{isolation:isolate;}.cls-2{fill:#4b241d;}.cls-3{fill:#fffaf5;}.cls-4{fill:#f68c2d;}.cls-5{fill:#fdfefe;opacity:0.4;mix-blend-mode:overlay;}</style></defs><g class="cls-1"><g id="Layer_1" data-name="Layer 1"><path class="cls-2" d="M16.34,0H49.81a3.53,3.53,0,0,1,3.53,3.53V6.24a0,0,0,0,1,0,0H12.81a0,0,0,0,1,0,0V3.53A3.53,3.53,0,0,1,16.34,0Z"/><path class="cls-3" d="M79.51,62.56v1.82a40,40,0,0,1-9.53,26,5.28,5.28,0,0,1-4,1.88H25.68a5.32,5.32,0,0,1-4.05-1.88,40.19,40.19,0,0,1-9.53-26V62.56A40.17,40.17,0,0,1,24.93,33.13a4.69,4.69,0,0,1-4-4.62v-.76a4.7,4.7,0,0,1,4.69-4.69H65.69a4.7,4.7,0,0,1,4.69,4.69v.76a4.69,4.69,0,0,1-3.74,4.58A40.17,40.17,0,0,1,79.51,62.56Z" transform="translate(-12.1 -17.59)"/><path class="cls-4" d="M72.84,62.5V64A32.09,32.09,0,0,1,65.2,84.79,4.26,4.26,0,0,1,62,86.3H29.66a4.26,4.26,0,0,1-3.25-1.52A32.18,32.18,0,0,1,18.77,64V62.5a32.24,32.24,0,0,1,9.08-22.43,6.36,6.36,0,0,1,4.58-1.89H59.18a6.36,6.36,0,0,1,4.58,1.89A32.24,32.24,0,0,1,72.84,62.5Z" transform="translate(-12.1 -17.59)"/><path class="cls-5" d="M72.84,62.5V64a31.61,31.61,0,0,1-.55,5.93,79.63,79.63,0,0,1-17.73-8.55c-10.3-6.55-25.7-6.9-34.89-6.39a32.31,32.31,0,0,1,8.18-14.88,6.39,6.39,0,0,1,4.58-1.88H59.18a6.35,6.35,0,0,1,4.58,1.88A32.24,32.24,0,0,1,72.84,62.5Z" transform="translate(-12.1 -17.59)"/></g></g></svg>