<svg width="45" height="44" viewBox="0 0 45 44" fill="none" xmlns="http://www.w3.org/2000/svg">
    <g clip-path="url(#clip0)">
        <path d="M15.4792 6.29443H29.6522C30.0487 6.29443 30.4289 6.45192 30.7092 6.73225C30.9895 7.01258 31.147 7.39279 31.147 7.78923V8.93679H13.9844V7.78923C13.9844 7.39279 14.1419 7.01258 14.4222 6.73225C14.7025 6.45192 15.0827 6.29443 15.4792 6.29443V6.29443Z" fill="#4C241D"/>
        <path d="M37.1057 25.3373V26.108C37.1142 30.1414 35.6833 34.0454 33.0701 37.1178C32.8621 37.365 32.6029 37.5642 32.3105 37.7017C32.0181 37.8391 31.6994 37.9115 31.3763 37.9139H14.3111C13.9846 37.9134 13.6621 37.842 13.366 37.7045C13.0699 37.5671 12.8072 37.3669 12.5961 37.1178C9.98913 34.0418 8.55901 30.1401 8.56055 26.108V25.3373C8.56058 22.9981 9.04307 20.6841 9.97786 18.5398C10.9127 16.3955 12.2797 14.4671 13.9935 12.875C13.5239 12.8052 13.0949 12.5695 12.7842 12.2106C12.4735 11.8517 12.3016 11.3934 12.2997 10.9187V10.5968C12.3008 10.0705 12.5104 9.56597 12.8826 9.19376C13.2548 8.82156 13.7593 8.61196 14.2857 8.61084H31.2535C31.7799 8.61196 32.2844 8.82156 32.6566 9.19376C33.0288 9.56597 33.2384 10.0705 33.2395 10.5968V10.9187C33.2383 11.3746 33.0802 11.8163 32.7918 12.1694C32.5034 12.5226 32.1023 12.7657 31.6558 12.8581C33.3748 14.4506 34.7462 16.3811 35.684 18.5286C36.6218 20.676 37.1058 22.994 37.1057 25.3373Z" fill="#FFFAF5"/>
        <path d="M34.282 25.3122V25.9474C34.2826 29.1729 33.1358 32.2934 31.0468 34.751C30.8799 34.9485 30.6726 35.1078 30.4388 35.2181C30.205 35.3284 29.9502 35.3872 29.6917 35.3904H15.9972C15.7348 35.3897 15.4757 35.3317 15.238 35.2206C15.0003 35.1094 14.7897 34.9477 14.6209 34.7468C12.5357 32.2886 11.3894 29.1708 11.3857 25.9474V25.3122C11.3856 21.767 12.7644 18.3608 15.2307 15.8141C15.484 15.5577 15.7862 15.3548 16.1193 15.2173C16.4524 15.0798 16.8098 15.0106 17.1701 15.0138H28.4976C28.8579 15.0106 29.2153 15.0798 29.5484 15.2173C29.8816 15.3548 30.1837 15.5577 30.437 15.8141C32.9033 18.3608 34.2821 21.767 34.282 25.3122Z" fill="#FFC850"/>
        <g style="mix-blend-mode:overlay" opacity="0.4">
            <path d="M34.2817 25.3116V25.9468C34.2833 26.7893 34.2053 27.63 34.0488 28.4579C31.4061 27.5662 28.8842 26.35 26.541 24.8373C22.1794 22.0637 15.6582 21.9155 11.7666 22.1315C12.3388 19.7599 13.5347 17.5844 15.2305 15.8304C15.4845 15.5754 15.7869 15.3736 16.1199 15.2369C16.453 15.1002 16.8099 15.0314 17.1699 15.0343H28.4973C28.8574 15.0304 29.2147 15.0988 29.5478 15.2356C29.881 15.3723 30.1833 15.5746 30.4367 15.8304C32.8989 18.3729 34.2775 21.7723 34.2817 25.3116Z" fill="#FDFEFE"/>
        </g>
        <g clip-path="url(#clip1)">
            <path d="M23.2329 19.3263C23.3991 18.8519 23.7596 18.301 24.2438 17.8969C24.6799 17.5319 25.2037 17.2871 25.7635 17.1867C25.7899 17.182 25.817 17.1826 25.8432 17.1884C25.8694 17.1942 25.8942 17.205 25.9162 17.2204C25.9382 17.2358 25.9569 17.2553 25.9713 17.2779C25.9858 17.3005 25.9956 17.3258 26.0003 17.3522C26.005 17.3786 26.0044 17.4056 25.9987 17.4318C25.9929 17.458 25.982 17.4828 25.9666 17.5048C25.9513 17.5268 25.9317 17.5455 25.9091 17.56C25.8865 17.5744 25.8613 17.5843 25.8349 17.5889C24.8001 17.7719 23.9736 18.5096 23.621 19.4545C23.5526 19.7301 23.1335 19.61 23.2329 19.3263ZM23.6264 19.3995C23.627 19.4125 23.6261 19.4254 23.624 19.4382C23.6262 19.4254 23.627 19.4125 23.6264 19.3995Z" fill="#E2E2E2"/>
            <path d="M21.4995 19.5202C21.4859 19.5002 21.476 19.478 21.4701 19.4546C21.1196 18.5148 20.2978 17.7725 19.2562 17.5884C19.2295 17.584 19.2039 17.5744 19.181 17.5601C19.1581 17.5458 19.1382 17.527 19.1226 17.505C19.1069 17.4829 19.0958 17.458 19.0899 17.4316C19.084 17.4052 19.0834 17.3779 19.0881 17.3513C19.0928 17.3247 19.1027 17.2993 19.1173 17.2765C19.1319 17.2538 19.1509 17.2341 19.1732 17.2188C19.1954 17.2034 19.2205 17.1926 19.2469 17.187C19.2734 17.1814 19.3007 17.1812 19.3272 17.1862C19.8871 17.2865 20.411 17.5314 20.847 17.8967C21.2903 18.2687 21.6328 18.7463 21.8431 19.2854C21.964 19.5948 21.6239 19.7032 21.4995 19.5202ZM21.4643 19.4034C21.464 19.4148 21.4649 19.4263 21.4668 19.4377C21.4649 19.4263 21.4641 19.4148 21.4643 19.4034Z" fill="#E2E2E2"/>
            <path d="M22.5665 31.1262C22.5124 31.1262 22.4604 31.1046 22.4221 31.0663C22.3838 31.028 22.3623 30.9761 22.3623 30.9219V29.9127C22.3623 29.8586 22.3838 29.8066 22.4221 29.7683C22.4604 29.73 22.5124 29.7085 22.5665 29.7085C22.6207 29.7085 22.6727 29.73 22.711 29.7683C22.7493 29.8066 22.7708 29.8586 22.7708 29.9127V30.9219C22.7708 30.9761 22.7493 31.028 22.711 31.0663C22.6727 31.1046 22.6207 31.1262 22.5665 31.1262Z" fill="#696B70"/>
            <path d="M22.5659 19.0591C21.6904 19.0591 20.9805 19.8128 20.9805 20.7425C20.9788 20.9845 21.0281 21.2241 21.1252 21.4457C21.2223 21.6674 21.3649 21.8661 21.5439 22.0289H23.5882C24.7104 21.0235 24.0443 19.0591 22.5659 19.0591Z" fill="#696B70"/>
            <path d="M22.8382 19.0835C21.8623 18.9038 20.9805 19.7016 20.9805 20.7416C20.9788 20.9836 21.0281 21.2232 21.1252 21.4448C21.2223 21.6665 21.3649 21.8652 21.5439 22.028H22.0885C21.0644 21.1095 21.5123 19.3272 22.8382 19.0835Z" fill="#5C5F63"/>
            <path d="M24.7074 26.5831C22.7288 24.6685 22.5657 22.1782 22.5657 22.1782C22.4875 22.9184 22.1191 24.9683 20.3937 26.6169L20.3635 26.7419C20.2442 27.2392 20.2859 27.7614 20.4824 28.2335C20.6789 28.7056 21.0202 29.1032 21.4571 29.3689L22.0722 29.743C22.2176 29.8314 22.3844 29.8781 22.5545 29.8781C22.7246 29.8781 22.8914 29.8314 23.0368 29.743L23.7655 29.2997C24.1697 29.0541 24.4855 28.6865 24.6673 28.2498C24.8491 27.8132 24.8875 27.3301 24.7771 26.8702L24.7074 26.5831Z" fill="#FFBE26"/>
            <path d="M22.0036 29.6131C21.5668 29.3474 21.2255 28.95 21.029 28.478C20.8325 28.006 20.7908 27.4838 20.91 26.9866L20.9403 26.8605C22.0619 25.7898 22.6098 24.5491 22.8778 23.6083C22.6398 22.8673 22.5676 22.2195 22.5673 22.1484C22.5673 22.1584 22.5668 22.1683 22.5657 22.1781C22.4875 22.9183 22.1191 24.9682 20.3937 26.6168L20.3635 26.7415C20.2442 27.2387 20.2858 27.761 20.4824 28.233C20.6789 28.7051 21.0202 29.1026 21.4571 29.3682L22.0723 29.7424C22.1791 29.8076 22.298 29.8503 22.4219 29.8679L22.0036 29.6131Z" fill="#F99A25"/>
            <path d="M20.9531 26.0135H24.1817C23.8323 25.5891 23.5335 25.1256 23.2912 24.6323H21.843C21.6009 25.1256 21.3023 25.5891 20.9531 26.0135Z" fill="#696B70"/>
            <path d="M21.8443 24.6323C21.6022 25.1257 21.3035 25.5893 20.9541 26.0135H21.6937C22.0151 25.5849 22.2875 25.1216 22.5057 24.6323H21.8443Z" fill="#5C5F63"/>
            <path d="M20.7974 28.7748H24.3576C24.6677 28.3816 24.8368 27.8958 24.838 27.395H20.2988C20.3181 27.8955 20.4923 28.3776 20.7974 28.7748Z" fill="#696B70"/>
            <path d="M21.1787 28.7748C20.933 28.3583 20.8181 27.8776 20.8489 27.395H20.2988C20.2988 27.7989 20.4753 28.3753 20.7963 28.7759L21.1787 28.7748Z" fill="#5C5F63"/>
            <path d="M22.5417 22.1777C22.6233 22.9559 23.0266 25.1821 24.9906 26.8658C25.9164 27.6596 27.3376 27.5768 28.1309 26.6504C28.3204 26.4293 28.4643 26.1728 28.5542 25.8958C28.6441 25.6188 28.6782 25.3267 28.6546 25.0364C28.6311 24.7461 28.5502 24.4634 28.4168 24.2045C28.2834 23.9456 28.1001 23.7157 27.8773 23.5281C25.8772 21.8397 23.5884 21.8166 22.802 21.867C22.7642 21.8696 22.7274 21.8798 22.6937 21.8969C22.6599 21.9141 22.63 21.9379 22.6057 21.9669C22.5814 21.9959 22.5632 22.0296 22.5522 22.0658C22.5412 22.102 22.5376 22.14 22.5417 22.1777Z" fill="#AAE8FF"/>
            <path d="M25.5898 26.8661C23.6257 25.1824 23.2226 22.9566 23.1407 22.178C23.1367 22.1403 23.1404 22.1023 23.1515 22.066C23.1626 22.0298 23.1809 21.9962 23.2053 21.9673C23.2297 21.9383 23.2598 21.9146 23.2936 21.8975C23.3274 21.8804 23.3643 21.8703 23.4021 21.8679C23.4359 21.8657 23.4723 21.8638 23.511 21.8621C23.2751 21.8516 23.0387 21.8535 22.803 21.8679C22.7652 21.8703 22.7283 21.8804 22.6945 21.8975C22.6607 21.9146 22.6307 21.9383 22.6062 21.9673C22.5818 21.9962 22.5635 22.0298 22.5524 22.066C22.5413 22.1023 22.5376 22.1403 22.5416 22.178C22.6233 22.9563 23.0266 25.1824 24.9905 26.8661C25.2323 27.0726 25.5149 27.2258 25.8199 27.3158C26.1249 27.4057 26.4454 27.4304 26.7605 27.3882C26.3279 27.3313 25.9212 27.15 25.5898 26.8661Z" fill="#6BD9FC"/>
            <path d="M22.5919 22.1777C22.5102 22.9559 22.1069 25.1821 20.143 26.8658C19.2171 27.6596 17.7959 27.5768 17.0027 26.6504C16.8132 26.4293 16.6693 26.1728 16.5794 25.8958C16.4895 25.6188 16.4553 25.3267 16.4789 25.0364C16.5025 24.7461 16.5833 24.4634 16.7167 24.2045C16.8501 23.9456 17.0335 23.7157 17.2562 23.5281C19.2564 21.8397 21.5454 21.8166 22.3316 21.867C22.3693 21.8696 22.4062 21.8798 22.4399 21.8969C22.4736 21.9141 22.5035 21.9379 22.5278 21.9669C22.5521 21.9959 22.5703 22.0296 22.5814 22.0658C22.5924 22.102 22.596 22.14 22.5919 22.1777Z" fill="#AAE8FF"/>
            <path d="M17.5484 26.6514C17.3588 26.4303 17.2149 26.1738 17.125 25.8968C17.035 25.6197 17.0009 25.3276 17.0245 25.0373C17.048 24.747 17.1289 24.4642 17.2623 24.2053C17.3957 23.9464 17.5791 23.7165 17.8019 23.5288C19.3813 22.1961 21.1399 21.9009 22.1976 21.8606C21.3071 21.8252 19.152 21.9298 17.2573 23.5288C17.0347 23.7165 16.8515 23.9465 16.7182 24.2053C16.585 24.4642 16.5043 24.7469 16.4808 25.0371C16.4573 25.3274 16.4916 25.6193 16.5815 25.8963C16.6714 26.1732 16.8153 26.4296 17.0048 26.6506C17.498 27.2285 18.2357 27.4773 18.9456 27.3921C18.4032 27.3299 17.9043 27.0654 17.5484 26.6514Z" fill="#6BD9FC"/>
            <path d="M18.2023 25.7612C18.1607 25.7612 18.12 25.7485 18.0857 25.7247C18.0515 25.7009 18.0254 25.6672 18.0108 25.6282C17.9963 25.5891 17.9941 25.5465 18.0045 25.5061C18.0149 25.4658 18.0373 25.4295 18.0689 25.4023L20.8598 22.9959C20.9009 22.9605 20.9543 22.9429 21.0083 22.9468C21.0623 22.9508 21.1126 22.9761 21.1479 23.0171C21.1833 23.0582 21.201 23.1116 21.197 23.1656C21.193 23.2196 21.1677 23.2698 21.1267 23.3052L18.3358 25.7108C18.2988 25.7431 18.2514 25.761 18.2023 25.7612Z" fill="#6BD9FC"/>
            <path d="M26.7989 25.7114L24.008 23.3053C23.9691 23.2693 23.9457 23.2196 23.9427 23.1667C23.9397 23.1138 23.9574 23.0618 23.992 23.0217C24.0266 22.9815 24.0754 22.9564 24.1282 22.9515C24.1809 22.9467 24.2335 22.9625 24.2748 22.9956L27.0658 25.4021C27.1068 25.4375 27.1321 25.4877 27.136 25.5417C27.14 25.5958 27.1224 25.6492 27.087 25.6902C27.0516 25.7312 27.0014 25.7565 26.9473 25.7605C26.8933 25.7644 26.8399 25.7468 26.7989 25.7114Z" fill="#6BD9FC"/>
        </g>
    </g>
    <defs>
        <clipPath id="clip0">
            <rect width="28.5451" height="31.6067" fill="white" transform="translate(8.5625 6.29492)"/>
        </clipPath>
        <clipPath id="clip1">
            <rect width="12.189" height="13.9424" fill="white" transform="translate(16.4717 17.1836)"/>
        </clipPath>
    </defs>
</svg>
