<svg xmlns="http://www.w3.org/2000/svg" width="40" height="40" viewBox="0 0 40 40" fill="none">
    <rect width="40" height="40"/>
    <g clip-path="url(#clip0_1500_36225)">
        <g filter="url(#filter0_i_1500_36225)">
            <circle cx="20" cy="20" r="17" fill="#00AB4F"/>
        </g>
        <circle cx="20" cy="20" r="18.5" stroke="white" stroke-width="3"/>
        <path d="M17.6445 12.7142C18.6409 11.7619 20.21 11.7619 21.2065 12.7142C22.1902 13.6972 22.1906 15.2915 21.2076 16.2751C21.2072 16.2755 21.2069 16.2758 21.2065 16.2762L20.2069 17.2758H26.6412C28.1748 17.2758 29.418 18.519 29.418 20.0527C29.418 21.5862 28.1748 22.8294 26.6412 22.8294H20.2069L21.2065 23.8291C22.1188 24.8795 22.0068 26.4705 20.9564 27.3828C20.0057 28.2085 18.5915 28.2054 17.6445 27.3756L11.4878 21.2189C10.8374 20.5683 10.8374 19.5137 11.4878 18.8631L17.6445 12.7142Z" fill="#FAFAFA"/>
    </g>
    <rect x="-776" y="-8569" width="8698" height="18749" rx="995" stroke="#4C241D" stroke-width="10" stroke-dasharray="100 100"/>
    <defs>
        <filter id="filter0_i_1500_36225" x="0" y="0" width="40" height="40" filterUnits="userSpaceOnUse" color-interpolation-filters="sRGB">
            <feFlood flood-opacity="0" result="BackgroundImageFix"/>
            <feBlend mode="normal" in="SourceGraphic" in2="BackgroundImageFix" result="shape"/>
            <feColorMatrix in="SourceAlpha" type="matrix" values="0 0 0 0 0 0 0 0 0 0 0 0 0 0 0 0 0 0 127 0" result="hardAlpha"/>
            <feOffset dx="-4" dy="-4"/>
            <feComposite in2="hardAlpha" operator="arithmetic" k2="-1" k3="1"/>
            <feColorMatrix type="matrix" values="0 0 0 0 0 0 0 0 0 0 0 0 0 0 0 0 0 0 0.08 0"/>
            <feBlend mode="normal" in2="shape" result="effect1_innerShadow_1500_36225"/>
        </filter>
        <clipPath id="clip0_1500_36225">
            <rect width="800" height="360" fill="white" transform="translate(-16 -10)"/>
        </clipPath>
    </defs>
</svg>
