<svg width="25" height="25" viewBox="0 0 25 25" fill="none" xmlns="http://www.w3.org/2000/svg">
    <g clip-path="url(#clip0)">
        <path d="M12.2383 0.175781C18.8657 0.175781 24.2383 5.54834 24.2383 12.1758C24.2383 18.8032 18.8657 24.1757 12.2383 24.1757C5.61089 24.1757 0.238331 18.8032 0.238331 12.1758C0.245766 5.55147 5.61397 0.183265 12.2383 0.175781Z" fill="#009688"/>
        <path d="M10.0485 5.28885C10.9847 4.39428 12.4588 4.39428 13.395 5.28885C14.3191 6.21237 14.3195 7.71019 13.396 8.63425C13.3956 8.6346 13.3953 8.63494 13.395 8.63528L12.4558 9.57441H18.5007C19.9414 9.57441 21.1094 10.7424 21.1094 12.1831C21.1094 13.6239 19.9414 14.7918 18.5007 14.7918H12.4558L13.395 15.7309C14.252 16.7178 14.1468 18.2125 13.16 19.0696C12.2669 19.8453 10.9382 19.8424 10.0485 19.0628L4.26452 13.2788C3.6535 12.6676 3.6535 11.6768 4.26452 11.0656L10.0485 5.28885Z" fill="#FAFAFA"/>
    </g>
    <defs>
        <clipPath id="clip0">
            <rect width="24" height="24" fill="white" transform="matrix(-1 0 0 1 24.2383 0.175781)"/>
        </clipPath>
    </defs>
</svg>
