<svg width="25" height="25" viewBox="0 0 25 25" fill="none" xmlns="http://www.w3.org/2000/svg">
    <g clip-path="url(#clip0)">
        <path d="M12.2383 0.175781C5.61084 0.175781 0.238281 5.54834 0.238281 12.1758C0.238281 18.8032 5.61084 24.1757 12.2383 24.1757C18.8657 24.1757 24.2382 18.8032 24.2382 12.1758C24.2308 5.55147 18.8626 0.183265 12.2383 0.175781Z" fill="#009688"/>
        <path d="M14.428 5.28885C13.4919 4.39428 12.0177 4.39428 11.0816 5.28885C10.1575 6.21237 10.157 7.71019 11.0806 8.63425C11.0809 8.6346 11.0813 8.63494 11.0816 8.63528L12.0207 9.57441H5.97586C4.53513 9.57441 3.36719 10.7424 3.36719 12.1831C3.36719 13.6239 4.53513 14.7918 5.97586 14.7918H12.0207L11.0816 15.7309C10.2245 16.7178 10.3298 18.2125 11.3166 19.0696C12.2097 19.8453 13.5384 19.8424 14.428 19.0628L20.212 13.2788C20.8231 12.6676 20.8231 11.6768 20.212 11.0656L14.428 5.28885Z" fill="#FAFAFA"/>
    </g>
    <defs>
        <clipPath id="clip0">
            <rect width="24" height="24" fill="white" transform="translate(0.238281 0.175781)"/>
        </clipPath>
    </defs>
</svg>
