<svg xmlns="http://www.w3.org/2000/svg" viewBox="0 0 59.92 57.06"><defs><style>.cls-1{isolation:isolate;}.cls-2{fill:#f68c2d;}.cls-3{fill:#fdfefe;opacity:0.4;mix-blend-mode:overlay;}</style></defs><g class="cls-1"><g id="Layer_1" data-name="Layer 1"><path class="cls-2" d="M-25,51l-4.34,4.23-5.12,5L-39,64.65a.78.78,0,0,0-.22.68L-36,84.24l.07.39a.77.77,0,0,1-1.11.81l-17.34-9.12a.77.77,0,0,0-.63,0l-.08,0L-72.4,85.44a.77.77,0,0,1-1.11-.81l3.31-19.3a.77.77,0,0,0-.21-.68L-84.44,51a.76.76,0,0,1,.42-1.3l19.38-2.81a.69.69,0,0,0,.36-.16.5.5,0,0,0,.15-.14l.07-.12,6-12.08,2.71-5.48a.69.69,0,0,1,.4-.37.75.75,0,0,1,1,.37l8.67,17.56a.77.77,0,0,0,.57.42l19.39,2.81A.76.76,0,0,1-25,51Z" transform="translate(84.67 -28.46)"/><path class="cls-3" d="M-25,51l-4.34,4.23L-39,64.65a.78.78,0,0,0-.22.68L-36,84.24c-10.22-18-19.78-29.85-28.3-37.53a.5.5,0,0,0,.15-.14l.07-.12,8.67-17.56a.69.69,0,0,1,.4-.37.75.75,0,0,1,1,.37l8.67,17.56a.77.77,0,0,0,.57.42l19.39,2.81A.76.76,0,0,1-25,51Z" transform="translate(84.67 -28.46)"/></g></g></svg>