<svg width="41" height="41" viewBox="0 0 41 41" fill="none" xmlns="http://www.w3.org/2000/svg">
    <circle cx="20.2071" cy="20.3028" r="20.2071" fill="#CCEFF7"/>
    <g clip-path="url(#clip0)">
        <path d="M35.3198 15.5588L25.6139 14.6587L21.7585 5.70599C21.4886 5.07912 20.5997 5.07912 20.3298 5.70599L16.4744 14.6587L6.76853 15.5588C6.08893 15.6219 5.81427 16.4672 6.32701 16.9176L13.6501 23.3509L11.507 32.8599C11.357 33.5257 12.076 34.0481 12.6629 33.6997L21.0442 28.723L29.4255 33.6997C30.0123 34.0481 30.7315 33.5257 30.5814 32.8599L28.4382 23.3509L35.7614 16.9176C36.2741 16.4672 35.9994 15.6219 35.3198 15.5588Z" fill="#FFDC64"/>
        <path d="M21.7585 5.70599C21.4886 5.07912 20.5997 5.07912 20.3298 5.70599L16.4744 14.6587L6.76853 15.5588C6.08893 15.6219 5.81427 16.4672 6.32701 16.9176L13.6501 23.3509L11.507 32.8599C11.357 33.5257 12.076 34.0481 12.6629 33.6997L14.5335 32.5889C14.7924 21.9313 19.7443 14.4261 23.6649 10.1327L21.7585 5.70599Z" fill="#FFC850"/>
    </g>
    <defs>
        <clipPath id="clip0">
            <rect width="29.9653" height="29.9653" fill="white" transform="translate(6.06152 4.54102)"/>
        </clipPath>
    </defs>
</svg>
