<svg id="Layer_1" data-name="Layer 1" xmlns="http://www.w3.org/2000/svg" viewBox="0 0 86.22 82.57"><defs><style>.cls-1{fill:#fcd133;}.cls-2{fill:none;stroke:#47261f;stroke-linecap:round;stroke-miterlimit:10;stroke-width:4px;}</style></defs><path class="cls-1" d="M192.72,233.86a9.71,9.71,0,0,0,6.57,4.68l20.94,2.86c2.49.34,3.06,2.07,1.28,3.83l-15,14.88a9.73,9.73,0,0,0-2.42,7.7l3.75,20.8c.44,2.47-1,3.55-3.25,2.4l-18.79-9.67a9.75,9.75,0,0,0-8.07.06l-18.62,10c-2.21,1.19-3.69.13-3.28-2.34l3.39-20.86a9.77,9.77,0,0,0-2.56-7.66l-15.26-14.62c-1.81-1.74-1.27-3.47,1.21-3.85l20.89-3.22a9.73,9.73,0,0,0,6.49-4.8l9.19-19c1.09-2.26,2.91-2.27,4,0Z" transform="translate(-138.32 -211.32)"/><path class="cls-2" d="M192.72,233.86a9.71,9.71,0,0,0,6.57,4.68l20.94,2.86c2.49.34,3.06,2.07,1.28,3.83l-15,14.88a9.73,9.73,0,0,0-2.42,7.7l3.75,20.8c.44,2.47-1,3.55-3.25,2.4l-18.79-9.67a9.75,9.75,0,0,0-8.07.06l-18.62,10c-2.21,1.19-3.69.13-3.28-2.34l3.39-20.86a9.77,9.77,0,0,0-2.56-7.66l-15.26-14.62c-1.81-1.74-1.27-3.47,1.21-3.85l20.89-3.22a9.73,9.73,0,0,0,6.49-4.8l9.19-19c1.09-2.26,2.91-2.27,4,0Z" transform="translate(-138.32 -211.32)"/></svg>