<svg width="32" height="33" viewBox="0 0 32 33" fill="none" xmlns="http://www.w3.org/2000/svg">
    <circle cx="16.0001" cy="16.798" r="16.0001" fill="#FF6C6C"/>
    <path d="M16.0003 3.3261C14.7535 3.3261 13.5353 4.14836 13.5353 5.38329V13.2043C13.5353 14.4392 14.7535 15.2615 16.0003 15.2615C17.247 15.2615 18.4653 14.4392 18.4653 13.2043V5.38329C18.4653 4.14836 17.247 3.3261 16.0003 3.3261Z" fill="#FAFAFA" stroke="#FAFAFA" stroke-width="0.985986"/>
    <path d="M16.0879 23.972L16.0876 23.972L16.0841 23.9714L16.0879 23.972ZM16.0879 23.972L16.0885 23.9722L16.0888 23.9722L16.0889 23.9722L16.0889 23.9722C16.0891 23.9723 16.0887 23.9722 16.0879 23.972ZM24.8744 8.0229L24.873 8.02145C23.8519 6.96984 22.1155 7.10587 21.2109 8.17559L21.2103 8.1763C20.4563 9.07142 20.3906 10.4606 21.3569 11.4792L21.3575 11.4799C22.671 12.8593 23.3937 14.6681 23.3937 16.5753C23.3937 20.6502 20.1202 23.943 16.0083 23.9641C16.0052 23.964 16.0021 23.964 15.9988 23.964L15.997 23.964C11.9581 23.9788 8.58671 20.81 8.60859 16.5581C8.61828 14.6694 9.32754 12.8581 10.6411 11.4789C11.604 10.4695 11.5469 9.07259 10.7917 8.18255C9.87646 7.09868 8.09745 6.99718 7.0782 8.07083C4.88296 10.3724 3.674 13.3935 3.674 16.5753C3.674 23.3987 9.2007 28.9001 15.9988 28.9001C22.7542 28.9001 28.3134 23.5393 28.3258 16.5761C28.3316 13.3882 27.1325 10.3675 24.8744 8.0229Z" fill="#FAFAFA" stroke="#FAFAFA" stroke-width="0.985986"/>
</svg>
