<svg id="Layer_1" data-name="Layer 1" xmlns="http://www.w3.org/2000/svg" viewBox="0 0 198.79 198.79"><defs><style>.cls-1{fill:#fef1c2;}.cls-2{fill:#9cd5fa;}.cls-3{fill:#ccdafc;}.cls-4{fill:#fcd133;}.cls-5{fill:#47261f;}.cls-6{fill:#fff;}.cls-7{fill:none;stroke:#47261f;stroke-linecap:round;stroke-miterlimit:10;stroke-width:4px;}</style></defs><circle class="cls-1" cx="99.4" cy="99.4" r="99.4"/><ellipse class="cls-2" cx="303.18" cy="274.26" rx="36.31" ry="24.92" transform="translate(-248.08 207.3) rotate(-53.93)"/><ellipse class="cls-3" cx="55.25" cy="120.86" rx="22.92" ry="39.2"/><path class="cls-4" d="M247.57,256.08c-26.57,0-48.11,26.77-48.11,59.79q0,3.09.25,6.11A88.14,88.14,0,0,0,295,326a73.35,73.35,0,0,0,.71-10.14C295.69,282.85,274.15,256.08,247.57,256.08Z" transform="translate(-151.08 -150.54)"/><path class="cls-5" d="M285.37,278.9a55.12,55.12,0,0,0-9.54-11.41,47,47,0,0,1-24.95,6.75c-11.41,0-21.63-3.62-28.49-9.32a52.39,52.39,0,0,0-10.33,10.62c9.57,8.37,23.43,13.64,38.82,13.64A60.7,60.7,0,0,0,285.37,278.9Z" transform="translate(-151.08 -150.54)"/><path class="cls-5" d="M250.88,327.85c16.65,0,32.46-4.33,44.8-12.24a72.67,72.67,0,0,0-3.19-21.19c-8.8,8.78-24.34,14.76-41.61,14.76-20.84,0-39.14-8.68-46.15-20.5a70.32,70.32,0,0,0-5.09,22.23c1.43,1.2,2.94,2.36,4.55,3.46C216.79,323.07,233.37,327.85,250.88,327.85Z" transform="translate(-151.08 -150.54)"/><circle class="cls-4" cx="100.39" cy="77.3" r="51.71"/><path class="cls-6" d="M282.56,249.93c-16.54,20.2-43.36,20.2-59.9,0Z" transform="translate(-151.08 -150.54)"/><path class="cls-6" d="M218.46,239.75a15.05,15.05,0,1,1,21.29,0" transform="translate(-151.08 -150.54)"/><path class="cls-6" d="M263.59,239.75a15.05,15.05,0,1,1,21.29,0" transform="translate(-151.08 -150.54)"/><circle class="cls-5" cx="78.11" cy="78.83" r="7.82"/><circle class="cls-5" cx="123.66" cy="78.83" r="7.82"/><path class="cls-7" d="M282.5,168.13c-6.13,5-11.61,12.16-11.61,22.1" transform="translate(-151.08 -150.54)"/><path class="cls-7" d="M242.55,164.92a40.17,40.17,0,0,0-9.15,25.31" transform="translate(-151.08 -150.54)"/><circle class="cls-2" cx="80.98" cy="75.13" r="1.23"/><circle class="cls-2" cx="126.63" cy="75.13" r="1.23"/><circle class="cls-5" cx="129.99" cy="19.64" r="4.7"/><circle class="cls-5" cx="92.76" cy="13.07" r="4.7"/></svg>