<?xml version="1.0" encoding="utf-8"?>
<!-- Generator: Adobe Illustrator 25.1.0, SVG Export Plug-In . SVG Version: 6.00 Build 0)  -->
<svg version="1.1" id="Layer_1" xmlns="http://www.w3.org/2000/svg" xmlns:xlink="http://www.w3.org/1999/xlink" x="0px" y="0px"
	 viewBox="0 0 117 53" style="enable-background:new 0 0 117 53;" xml:space="preserve">
<style type="text/css">
	.st0{fill:#E63950;}
	.st1{fill:#FF637B;}
</style>
<path class="st0" d="M27.7,22.1l-10.5-6.8L1.5,30.8c-0.9,0.9-1.3,2.3-0.9,3.5c0.4,1.2,1.4,2.2,2.7,2.4l10.4,2l2,10.4
	c0.3,1.3,1.2,2.3,2.4,2.7c0.3,0.1,0.7,0.2,1,0.2c0.9,0,1.8-0.4,2.5-1l7.5-7.5c2.9-2.9,4.3-7.1,4.1-11.1C33,28.4,31,24.6,27.7,22.1z"
	/>
<path class="st0" d="M115.5,30.8L99.8,15.3l-11.9,8c-2.7,2.7-4.1,6.2-4.1,10s1.5,7.6,4.1,10.2l7.5,7.5c0.7,0.7,1.6,1,2.5,1
	c0.3,0,0.7,0,1-0.2c1.2-0.4,2.2-1.4,2.4-2.7l2-10.4l10.4-2c1.3-0.3,2.3-1.2,2.7-2.4C116.7,33.1,116.4,31.8,115.5,30.8z"/>
<path class="st1" d="M106.2,11.2l-1.5-0.7c-16.2-7.6-32-10-45.7-9.9C31.7,0.8,12.3,11.1,11.8,11.2c-1.6,0.7-2.5,2.6-1.8,4.3
	c5.8,19.6,6.3,20.9,6.3,20.8c0,0,0,0.1,0.1,0.2c0.6,1.8,2.5,2.8,4.4,2.3c16.2-5,28.1-7.2,38.3-7.4c13.4-0.2,24.1,3,38.3,7.4
	c1.8,0.6,3.7-0.4,4.4-2.3c0.5-1.4-1.8,6.4,6.3-21C108.7,13.8,107.8,11.9,106.2,11.2z"/>
</svg>
