<svg width="117" height="53" viewBox="0 0 117 53" fill="none" xmlns="http://www.w3.org/2000/svg">
<path d="M27.7498 22.1262L17.2273 15.2886L1.52852 30.839C0.611611 31.761 0.274952 33.1147 0.649357 34.3649C1.02376 35.6115 2.0539 36.5507 3.32458 36.8063L13.6935 38.8439L15.7198 49.2706C15.9739 50.5483 16.908 51.5842 18.1477 51.9607C18.4844 52.0642 18.8276 52.1127 19.1678 52.1127C20.0882 52.1127 20.9844 51.7502 21.654 51.0766L29.113 43.5761C31.9669 40.7063 33.4608 36.4991 33.2066 32.4449C32.9525 28.3938 30.9642 24.6332 27.7498 22.1262Z" fill="#E63950"/>
<path d="M115.471 30.839L99.7724 15.2886L87.8867 23.3384C85.2285 26.0078 83.7656 29.5613 83.7656 33.3394C83.7656 37.1175 85.2285 40.9067 87.8867 43.5761L95.3457 51.0766C96.0153 51.7499 96.9118 52.1127 97.832 52.1127C98.1719 52.1127 98.5154 52.0644 98.852 51.9607C100.092 51.5842 101.026 50.5483 101.28 49.2706L103.306 38.8439L113.675 36.8063C114.946 36.5507 115.976 35.6115 116.35 34.3649C116.725 33.1147 116.388 31.761 115.471 30.839Z" fill="#E63950"/>
<path d="M106.228 11.1966L104.751 10.4896C88.504 2.92208 72.7495 0.517209 59.0346 0.587933C31.7455 0.800343 12.3336 11.0554 11.841 11.1966C10.2236 11.9041 9.37963 13.8134 10.0129 15.5108C15.8503 35.1018 16.2722 36.3746 16.2722 36.3038C16.2722 36.3038 16.2722 36.4455 16.3426 36.5163C16.9758 38.2844 18.8045 39.3455 20.7032 38.7794C36.9501 33.7578 48.766 31.5653 59.0346 31.4238C72.3981 31.2119 83.1588 34.3945 97.366 38.7794C99.1946 39.3455 101.093 38.3551 101.727 36.5163C102.219 35.1018 99.898 42.952 108.056 15.5108C108.69 13.8134 107.846 11.9043 106.228 11.1966Z" fill="#FF637B"/>
<g clip-path="url(#clip0)">
<path d="M42.542 14.3178L35.0959 13.6272L32.1381 6.75888C31.931 6.27796 31.2491 6.27796 31.042 6.75888L28.0842 13.6272L20.6381 14.3178C20.1167 14.3661 19.906 15.0146 20.2994 15.3602L25.9175 20.2956L24.2734 27.5908C24.1583 28.1016 24.7099 28.5023 25.1601 28.235L31.5901 24.417L38.02 28.235C38.4702 28.5023 39.0219 28.1016 38.9068 27.5908L37.2626 20.2956L42.8808 15.3602C43.2741 15.0146 43.0634 14.3661 42.542 14.3178Z" fill="#FFDC64"/>
<path d="M32.1381 6.75888C31.931 6.27796 31.2491 6.27796 31.042 6.75888L28.0842 13.6272L20.6381 14.3178C20.1167 14.3661 19.906 15.0146 20.2994 15.3602L25.9175 20.2956L24.2734 27.5908C24.1583 28.1016 24.7099 28.5023 25.1601 28.235L26.5952 27.3829C26.7939 19.2066 30.5928 13.4487 33.6006 10.1549L32.1381 6.75888Z" fill="#FFC850"/>
</g>
<g opacity="0.2" clip-path="url(#clip1)">
<path d="M69.9854 10.1752L62.5393 9.48459L59.5814 2.61631C59.3744 2.13538 58.6925 2.13538 58.4854 2.61631L55.5276 9.48463L48.0815 10.1752C47.5601 10.2235 47.3494 10.872 47.7427 11.2176L53.3609 16.1531L51.7167 23.4482C51.6016 23.959 52.1533 24.3598 52.6035 24.0924L59.0334 20.2744L65.4634 24.0924C65.9136 24.3598 66.4653 23.959 66.3502 23.4482L64.706 16.1531L70.3241 11.2176C70.7175 10.872 70.5068 10.2235 69.9854 10.1752Z" fill="#FFDC64"/>
<path d="M59.5814 2.61631C59.3744 2.13538 58.6925 2.13538 58.4854 2.61631L55.5276 9.48463L48.0815 10.1752C47.5601 10.2235 47.3494 10.872 47.7427 11.2176L53.3609 16.1531L51.7167 23.4482C51.6016 23.959 52.1533 24.3598 52.6035 24.0924L54.0386 23.2403C54.2372 15.064 58.0362 9.30616 61.044 6.01235L59.5814 2.61631Z" fill="#FFC850"/>
</g>
<g opacity="0.2" clip-path="url(#clip2)">
<path d="M97.4307 14.3178L89.9846 13.6272L87.0267 6.75888C86.8197 6.27796 86.1378 6.27796 85.9307 6.75888L82.9729 13.6272L75.5268 14.3178C75.0054 14.3661 74.7947 15.0146 75.1881 15.3602L80.8062 20.2956L79.162 27.5908C79.0469 28.1016 79.5986 28.5023 80.0488 28.235L86.4787 24.417L92.9087 28.235C93.3589 28.5023 93.9106 28.1016 93.7955 27.5908L92.1513 20.2956L97.7694 15.3602C98.1628 15.0146 97.9521 14.3661 97.4307 14.3178Z" fill="#FFDC64"/>
<path d="M87.0267 6.75888C86.8197 6.27796 86.1378 6.27796 85.9307 6.75888L82.9729 13.6272L75.5268 14.3178C75.0054 14.3661 74.7947 15.0146 75.1881 15.3602L80.8062 20.2956L79.162 27.5908C79.0469 28.1016 79.5986 28.5023 80.0488 28.235L81.4839 27.3829C81.6825 19.2066 85.4815 13.4487 88.4893 10.1549L87.0267 6.75888Z" fill="#FFC850"/>
</g>
<defs>
<clipPath id="clip0">
<rect width="22.9888" height="22.9888" fill="white" transform="translate(20.0957 5.86548)"/>
</clipPath>
<clipPath id="clip1">
<rect width="22.9888" height="22.9888" fill="white" transform="translate(47.5391 1.7229)"/>
</clipPath>
<clipPath id="clip2">
<rect width="22.9888" height="22.9888" fill="white" transform="translate(74.9844 5.86548)"/>
</clipPath>
</defs>
</svg>
