<?xml version="1.0" encoding="utf-8"?>
<!-- Generator: Adobe Illustrator 25.1.0, SVG Export Plug-In . SVG Version: 6.00 Build 0)  -->
<svg version="1.1" id="Layer_1" xmlns="http://www.w3.org/2000/svg" xmlns:xlink="http://www.w3.org/1999/xlink" x="0px" y="0px"
	 viewBox="0 0 117 53" style="enable-background:new 0 0 117 53;" xml:space="preserve">
<style type="text/css">
	.st0{fill:#E63950;}
	.st1{fill:#FF637B;}
	.st2{opacity:0.6;}
	.st3{clip-path:url(#SVGID_2_);}
	.st4{clip-path:url(#SVGID_4_);}
	.st5{clip-path:url(#SVGID_6_);}
</style>
<path class="st0" d="M27.7,22.1l-10.5-6.8L1.5,30.8c-0.9,0.9-1.3,2.3-0.9,3.5s1.4,2.2,2.7,2.4l10.4,2l2,10.4
	c0.3,1.3,1.2,2.3,2.4,2.7c0.3,0.1,0.7,0.2,1,0.2c0.9,0,1.8-0.4,2.5-1l7.5-7.5c2.9-2.9,4.3-7.1,4.1-11.1S31,24.6,27.7,22.1z"/>
<path class="st0" d="M115.5,30.8L99.8,15.3l-11.9,8c-2.7,2.7-4.1,6.2-4.1,10s1.5,7.6,4.1,10.2l7.5,7.5c0.7,0.7,1.6,1,2.5,1
	c0.3,0,0.7,0,1-0.2c1.2-0.4,2.2-1.4,2.4-2.7l2-10.4l10.4-2c1.3-0.3,2.3-1.2,2.7-2.4C116.7,33.1,116.4,31.8,115.5,30.8z"/>
<path class="st1" d="M106.2,11.2l-1.5-0.7c-16.2-7.6-32-10-45.7-9.9C31.7,0.8,12.3,11.1,11.8,11.2c-1.6,0.7-2.5,2.6-1.8,4.3
	c5.8,19.6,6.3,20.9,6.3,20.8c0,0,0,0.1,0.1,0.2c0.6,1.8,2.5,2.8,4.4,2.3c16.2-5,28.1-7.2,38.3-7.4c13.4-0.2,24.1,3,38.3,7.4
	c1.8,0.6,3.7-0.4,4.4-2.3c0.5-1.4-1.8,6.4,6.3-21C108.7,13.8,107.8,11.9,106.2,11.2z"/>
<g class="st2">
	<defs>
		<rect id="SVGID_1_" x="20.1" y="5.9" class="st2" width="23" height="23"/>
	</defs>
	<clipPath id="SVGID_2_">
		<use xlink:href="#SVGID_1_"  style="overflow:visible;"/>
	</clipPath>
	<g class="st3">
		<path class="st0" d="M42.5,14.3l-7.4-0.7l-3-6.9c-0.2-0.5-0.9-0.5-1.1,0l-3,6.9l-7.4,0.7c-0.5,0-0.7,0.7-0.3,1l5.6,4.9l-1.6,7.3
			c-0.1,0.5,0.4,0.9,0.9,0.6l6.4-3.8l6.4,3.8c0.5,0.3,1-0.1,0.9-0.6l-1.6-7.3l5.6-4.9C43.3,15,43.1,14.4,42.5,14.3z"/>
	</g>
</g>
<g class="st2">
	<defs>
		<rect id="SVGID_3_" x="47.5" y="1.7" class="st2" width="23" height="23"/>
	</defs>
	<clipPath id="SVGID_4_">
		<use xlink:href="#SVGID_3_"  style="overflow:visible;"/>
	</clipPath>
	<g class="st4">
		<path class="st0" d="M70,10.2l-7.4-0.7l-3-6.9c-0.2-0.5-0.9-0.5-1.1,0l-3,6.9l-7.4,0.7c-0.5,0-0.7,0.7-0.3,1l5.6,4.9l-1.6,7.3
			c-0.1,0.5,0.4,0.9,0.9,0.6l6.4-3.8l6.4,3.8c0.5,0.3,1-0.1,0.9-0.6l-1.6-7.3l5.6-4.9C70.7,10.9,70.5,10.2,70,10.2z"/>
	</g>
</g>
<g class="st2">
	<defs>
		<rect id="SVGID_5_" x="75" y="5.9" class="st2" width="23" height="23"/>
	</defs>
	<clipPath id="SVGID_6_">
		<use xlink:href="#SVGID_5_"  style="overflow:visible;"/>
	</clipPath>
	<g class="st5">
		<path class="st0" d="M97.4,14.3L90,13.6l-3-6.9c-0.2-0.5-0.9-0.5-1.1,0l-3,6.9l-7.4,0.7c-0.5,0-0.7,0.7-0.3,1l5.6,4.9l-1.6,7.3
			c-0.1,0.5,0.4,0.9,0.9,0.6l6.4-3.8l6.4,3.8c0.5,0.3,1-0.1,0.9-0.6l-1.6-7.3l5.6-4.9C98.2,15,98,14.4,97.4,14.3z"/>
	</g>
</g>
</svg>
