<svg width="115" height="59" viewBox="0 0 115 59" fill="none" xmlns="http://www.w3.org/2000/svg">
<path d="M29.2731 38.2161V40.8661C29.2731 42.4561 27.9685 43.72 26.4193 43.72H14.6776C13.0876 43.72 11.8237 42.4153 11.8237 40.8661V38.2161" fill="#FCD133"/>
<path d="M29.2731 38.2161V40.8661C29.2731 42.4561 27.9685 43.72 26.4193 43.72H14.6776C13.0876 43.72 11.8237 42.4153 11.8237 40.8661V38.2161" stroke="#47261F" stroke-width="1.63022" stroke-miterlimit="10" stroke-linecap="round"/>
<path d="M31.7601 10.5743C31.7601 8.82123 30.3332 7.43506 28.6209 7.43506C26.8678 7.43506 25.4816 8.862 25.4816 10.5743C25.4816 11.4305 25.8077 12.2051 26.3785 12.7759L24.2585 20.0329C24.0139 20.8483 24.5031 21.7044 25.3185 21.9491C25.4816 21.9898 25.6039 22.0306 25.767 22.0306C26.4193 22.0306 27.0716 21.5821 27.2755 20.9298L29.3955 13.6728C30.7001 13.3059 31.7601 12.042 31.7601 10.5743Z" fill="#47261F"/>
<path d="M30.0071 31.9376H11.0899C9.17376 31.9376 7.62451 30.5106 7.62451 28.7983C7.62451 27.086 9.17376 25.6591 11.0899 25.6591H29.9663C31.8825 25.6591 33.4317 27.086 33.4317 28.7983C33.4725 30.5106 31.8825 31.9376 30.0071 31.9376Z" fill="#FCD133" stroke="#47261F" stroke-width="1.63022" stroke-miterlimit="10" stroke-linecap="round"/>
<path d="M30.4963 25.659H10.6007C8.84759 25.659 7.37988 24.3544 7.37988 22.8051V18.9728H33.7171V22.8051C33.7171 24.3544 32.2494 25.659 30.4963 25.659Z" fill="#FCD133" stroke="#47261F" stroke-width="1.63022" stroke-miterlimit="10" stroke-linecap="round"/>
<path d="M29.1509 38.2162H11.9461C10.2338 38.2162 8.80688 36.7892 8.80688 35.0769C8.80688 33.3646 10.2338 31.9376 11.9461 31.9376H29.1102C30.8225 31.9376 32.2494 33.3646 32.2494 35.0769C32.2902 36.83 30.8633 38.2162 29.1509 38.2162Z" fill="#FCD133" stroke="#47261F" stroke-width="1.63022" stroke-miterlimit="10" stroke-linecap="round"/>
<path d="M20.5893 18.1167C20.5893 17.6682 20.5078 17.2605 19.6108 17.2605H15.0854C14.1885 17.2605 13.9846 17.6274 13.9846 18.1167V36.8707C13.9846 37.7676 14.7185 38.5015 15.6154 38.5015C16.5123 38.5015 17.2462 37.7676 17.2462 36.8707V30.5922C17.2462 31.4891 17.98 32.223 18.877 32.223C19.7739 32.223 20.5078 31.4891 20.5078 30.5922V18.1167H20.5893Z" fill="#FCD133"/>
<g opacity="0.4">
<path d="M103.273 32.2161V34.8661C103.273 36.4561 101.969 37.72 100.419 37.72H88.6776C87.0876 37.72 85.8237 36.4153 85.8237 34.8661V32.2161" fill="#FCD133"/>
<path d="M103.273 32.2161V34.8661C103.273 36.4561 101.969 37.72 100.419 37.72H88.6776C87.0876 37.72 85.8237 36.4153 85.8237 34.8661V32.2161" stroke="#47261F" stroke-width="1.63022" stroke-miterlimit="10" stroke-linecap="round"/>
<path d="M105.76 4.57432C105.76 2.82123 104.333 1.43506 102.621 1.43506C100.868 1.43506 99.4817 2.862 99.4817 4.57432C99.4817 5.43049 99.8079 6.20511 100.379 6.77588L98.2586 14.0329C98.014 14.8483 98.5032 15.7044 99.3186 15.9491C99.4817 15.9898 99.604 16.0306 99.7671 16.0306C100.419 16.0306 101.072 15.5821 101.276 14.9298L103.396 7.67282C104.7 7.30589 105.76 6.04203 105.76 4.57432Z" fill="#47261F"/>
<path d="M104.007 25.9376H85.0899C83.1738 25.9376 81.6245 24.5106 81.6245 22.7983C81.6245 21.086 83.1738 19.6591 85.0899 19.6591H103.966C105.882 19.6591 107.432 21.086 107.432 22.7983C107.472 24.5106 105.882 25.9376 104.007 25.9376Z" fill="#FCD133" stroke="#47261F" stroke-width="1.63022" stroke-miterlimit="10" stroke-linecap="round"/>
<path d="M104.496 19.659H84.6007C82.8476 19.659 81.3799 18.3544 81.3799 16.8051V12.9728H107.717V16.8051C107.717 18.3544 106.249 19.659 104.496 19.659Z" fill="#FCD133" stroke="#47261F" stroke-width="1.63022" stroke-miterlimit="10" stroke-linecap="round"/>
<path d="M103.151 32.2162H85.9461C84.2338 32.2162 82.8069 30.7892 82.8069 29.0769C82.8069 27.3646 84.2338 25.9376 85.9461 25.9376H103.11C104.823 25.9376 106.249 27.3646 106.249 29.0769C106.29 30.83 104.863 32.2162 103.151 32.2162Z" fill="#FCD133" stroke="#47261F" stroke-width="1.63022" stroke-miterlimit="10" stroke-linecap="round"/>
<path d="M94.5893 12.1167C94.5893 11.6682 94.5078 11.2605 93.6108 11.2605H89.0854C88.1885 11.2605 87.9846 11.6274 87.9846 12.1167V30.8707C87.9846 31.7676 88.7185 32.5015 89.6154 32.5015C90.5123 32.5015 91.2462 31.7676 91.2462 30.8707V24.5922C91.2462 25.4891 91.98 26.223 92.877 26.223C93.7739 26.223 94.5078 25.4891 94.5078 24.5922V12.1167H94.5893Z" fill="#FCD133"/>
</g>
<g opacity="0.4">
<path d="M66.2731 50.2161V52.8661C66.2731 54.4561 64.9685 55.72 63.4193 55.72H51.6776C50.0876 55.72 48.8237 54.4153 48.8237 52.8661V50.2161" fill="#FCD133"/>
<path d="M66.2731 50.2161V52.8661C66.2731 54.4561 64.9685 55.72 63.4193 55.72H51.6776C50.0876 55.72 48.8237 54.4153 48.8237 52.8661V50.2161" stroke="#47261F" stroke-width="1.63022" stroke-miterlimit="10" stroke-linecap="round"/>
<path d="M68.7601 22.5743C68.7601 20.8212 67.3332 19.4351 65.6209 19.4351C63.8678 19.4351 62.4816 20.862 62.4816 22.5743C62.4816 23.4305 62.8077 24.2051 63.3785 24.7759L61.2585 32.0329C61.0139 32.8483 61.5031 33.7044 62.3185 33.9491C62.4816 33.9898 62.6039 34.0306 62.767 34.0306C63.4193 34.0306 64.0716 33.5821 64.2755 32.9298L66.3955 25.6728C67.7001 25.3059 68.7601 24.042 68.7601 22.5743Z" fill="#47261F"/>
<path d="M67.0071 43.9376H48.0899C46.1738 43.9376 44.6245 42.5106 44.6245 40.7983C44.6245 39.086 46.1738 37.6591 48.0899 37.6591H66.9663C68.8825 37.6591 70.4317 39.086 70.4317 40.7983C70.4725 42.5106 68.8825 43.9376 67.0071 43.9376Z" fill="#FCD133" stroke="#47261F" stroke-width="1.63022" stroke-miterlimit="10" stroke-linecap="round"/>
<path d="M67.4963 37.659H47.6007C45.8476 37.659 44.3799 36.3544 44.3799 34.8051V30.9728H70.7171V34.8051C70.7171 36.3544 69.2494 37.659 67.4963 37.659Z" fill="#FCD133" stroke="#47261F" stroke-width="1.63022" stroke-miterlimit="10" stroke-linecap="round"/>
<path d="M66.1509 50.2162H48.9461C47.2338 50.2162 45.8069 48.7892 45.8069 47.0769C45.8069 45.3646 47.2338 43.9376 48.9461 43.9376H66.1102C67.8225 43.9376 69.2494 45.3646 69.2494 47.0769C69.2902 48.83 67.8633 50.2162 66.1509 50.2162Z" fill="#FCD133" stroke="#47261F" stroke-width="1.63022" stroke-miterlimit="10" stroke-linecap="round"/>
<path d="M57.5893 30.1167C57.5893 29.6682 57.5078 29.2605 56.6108 29.2605H52.0854C51.1885 29.2605 50.9846 29.6274 50.9846 30.1167V48.8707C50.9846 49.7676 51.7185 50.5015 52.6154 50.5015C53.5123 50.5015 54.2462 49.7676 54.2462 48.8707V42.5922C54.2462 43.4891 54.98 44.223 55.877 44.223C56.7739 44.223 57.5078 43.4891 57.5078 42.5922V30.1167H57.5893Z" fill="#FCD133"/>
</g>
</svg>
